<svg width="95" height="95" viewBox="0 0 95 95" fill="none" xmlns="http://www.w3.org/2000/svg">
<g clip-path="url(#clip0_321_583)">
<path d="M13.0576 42.5393C15.68 42.5013 18.2744 41.9934 20.7175 41.0396C20.8942 41.008 21.0619 40.9386 21.2092 40.836C21.3565 40.7334 21.4798 40.6002 21.5707 40.4455C21.6616 40.2907 21.7179 40.1181 21.7358 39.9395C21.7536 39.7609 21.7326 39.5806 21.6741 39.4109C21.6157 39.2412 21.5212 39.0862 21.3971 38.9565C21.2731 38.8268 21.1224 38.7255 20.9555 38.6596C20.7886 38.5937 20.6093 38.5646 20.4301 38.5745C20.2509 38.5844 20.076 38.633 19.9174 38.717C17.7497 39.5112 15.4634 39.9332 13.155 39.965C11.78 40.0402 10.4297 39.5775 9.38981 38.6747C7.01706 34.9107 5.69947 30.5782 5.57486 26.1305C5.14587 23.0073 5.20142 19.8366 5.73956 16.7304C5.8934 15.7038 6.37409 14.7542 7.1103 14.0225C10.2699 11.6918 27.6137 9.74848 44.954 8.72218C55.295 7.94449 65.6762 7.85271 76.0294 8.44741C78.2087 8.39638 80.3719 8.83314 82.3606 9.72575C84.8235 12.938 85.946 16.9796 85.4924 21.0019C85.7853 25.0918 84.7299 29.1651 82.4878 32.5983C81.0228 34.0666 76.3195 34.4245 70.7049 34.8518C58.0171 35.8174 40.9245 35.7614 38.9074 36.7217C37.1465 37.6866 35.5565 38.935 34.2015 40.4168C31.754 42.95 29.2498 46.1842 27.4646 48.2636C27.1586 48.5802 26.9229 48.8549 26.6815 49.0566C26.5747 48.9038 26.4881 48.7378 26.4239 48.5628C25.5401 45.817 24.837 43.0164 24.319 40.1788C23.9505 38.2267 21.9084 38.8588 21.9861 39.8797C22.0637 40.9005 22.4355 42.4124 22.8322 44.2524C23.2166 46.5633 23.8933 48.8161 24.8459 50.9564C24.9986 51.316 25.2742 51.6095 25.6234 51.7845C25.9726 51.9594 26.3727 52.0045 26.7521 51.9115C27.8556 51.3901 28.8359 50.6406 29.6284 49.7124C31.7335 47.4986 34.7849 43.7461 37.5688 41.2973C38.3469 40.5696 39.227 39.9591 40.1811 39.485C42.417 38.5081 63.2918 39.5964 75.621 38.2547C79.0299 38.1518 82.3537 37.166 85.2675 35.3937C88.3866 31.2617 89.9819 26.1787 89.783 21.0054C90.0349 18.4467 89.7799 15.8636 89.0327 13.4036C88.2855 10.9436 87.0607 8.65497 85.4283 6.66868C83.2133 5.2518 80.6574 4.45823 78.0294 4.37149C69.5587 3.65004 61.0453 3.57467 52.5631 4.14603C32.1437 5.18665 8.88996 8.49651 5.15216 11.4212C2.89608 13.0964 1.95537 18.0818 2.33511 23.5534C2.86507 30.5171 5.1443 38.3011 7.66636 40.6027C9.15775 41.9002 11.0815 42.5912 13.0576 42.5393Z" fill="black"/>
<path d="M72.5324 75.7476L72.6156 76.8413C72.4872 79.8326 72.1503 82.8113 71.6072 85.7556L70.8253 85.1184C68.757 83.4789 65.8259 80.6217 62.9785 78.3815C61.4164 77.0585 59.6374 76.0153 57.72 75.298C53.8836 75.1685 50.0446 75.4607 46.2719 76.1693C38.7162 77.111 28.7763 78.5275 21.5352 78.7852C18.9744 79.1597 16.3618 78.9447 13.8966 78.1564C11.6964 76.7104 9.73464 71.6525 8.75174 66.4468C7.46876 62.1516 7.87789 57.5283 9.89523 53.5252C10.4871 52.9513 11.2105 52.5311 12.0023 52.3014C13.4388 51.7411 14.9098 51.274 16.4063 50.9028C16.7355 50.8237 17.02 50.6173 17.1973 50.3289C17.3747 50.0405 17.4306 49.6935 17.3526 49.364C17.2578 49.0471 17.0471 48.7774 16.7624 48.6088C16.4778 48.4402 16.1401 48.385 15.8166 48.4541C13.922 48.8588 12.0636 49.4172 10.2598 50.1238C9.29445 50.4765 8.4222 51.0445 7.70923 51.7847C5.05649 54.9936 4.75145 61.104 5.45616 66.991C6.42402 73.4446 9.1225 79.5099 11.7206 81.3657C14.3188 83.2215 19.4116 83.1639 26.2322 82.6815C33.0528 82.1991 41.795 80.9471 48.0327 80.0323C50.8668 79.4313 53.7477 79.0771 56.643 78.9737C57.6449 79.2653 58.5947 79.7127 59.4575 80.2996C62.5379 82.2287 66.1894 85.3978 68.6053 87.2675C69.5417 88.0466 70.6202 88.637 71.7812 89.006C72.177 89.0507 72.5762 88.9594 72.9132 88.7471C73.2503 88.5349 73.5051 88.2143 73.6358 87.8381C74.1897 85.9205 74.4828 83.937 74.5072 81.9412C74.6296 79.695 74.7128 77.4151 74.708 76.3887L74.6636 75.8054C74.8859 74.8717 72.595 74.6427 72.5324 75.7476Z" fill="black"/>
<path d="M87.2015 43.4612C82.8773 42.16 78.3542 41.6472 73.8484 41.9472C64.0941 42.1828 54.3587 42.9237 44.6811 44.1669C44.391 44.189 44.1216 44.3254 43.9321 44.5461C43.7426 44.7668 43.6485 45.0538 43.6706 45.3439C43.6927 45.634 43.8291 45.9034 44.0498 46.0929C44.2705 46.2825 44.5575 46.3765 44.8476 46.3544C53.5249 45.6941 62.3951 45.6424 69.6976 45.71C73.3685 45.7607 76.8262 45.9009 79.5547 46.0967C81.471 46.0874 83.3761 46.3883 85.1964 46.9874C85.9865 47.6467 86.5434 48.543 86.7844 49.5435C87.89 52.6732 88.5344 55.947 88.6974 59.2622C89.0173 62.6006 88.8787 65.9671 88.2855 69.2679C88.1843 70.4628 87.7206 71.5984 86.9563 72.5226C85.94 73.3421 84.6984 73.8331 83.3964 73.9303C80.944 74.1231 78.4776 74.0401 76.0436 73.6832C75.7189 73.7614 75.4385 73.9654 75.2642 74.2503C75.0899 74.5352 75.0359 74.8777 75.1141 75.2024C75.1923 75.5271 75.3963 75.8075 75.6812 75.9818C75.9661 76.1561 76.3086 76.2101 76.6333 76.1319C78.9216 76.5694 81.2467 76.7854 83.5764 76.7769C85.4729 76.6666 87.2959 76.0053 88.8221 74.8742C91.2074 72.9692 92.6209 66.0043 92.3853 59.0549C92.3218 55.3639 91.7095 51.7029 90.5685 48.1921C90.0237 46.2748 88.8345 44.604 87.2015 43.4612Z" fill="black"/>
</g>
<defs>
<clipPath id="clip0_321_583">
<rect width="87.7548" height="87.7548" fill="white" transform="translate(0.722656 7.1748) rotate(-4.35205)"/>
</clipPath>
</defs>
</svg>
