<svg width="399" height="96" viewBox="0 0 399 96" fill="none" xmlns="http://www.w3.org/2000/svg">
<path d="M120.612 30.7928C144.344 22.5301 180.847 19.5625 210.552 17.3383C262.815 13.4251 316.883 16.2754 363.869 26.5553C390.614 32.4068 402.693 43.6691 389.916 55.1716C371.157 72.0607 319.832 80.899 279.054 86.2453C252.011 89.7907 224.264 91.421 195.938 92.1387C158.434 93.0888 120.504 92.7567 83.5007 89.9213C58.0312 87.9696 9.7167 85.1341 4.50375 71.903C2.28116 66.2618 7.85213 60.2933 13.4716 55.2587C26.2184 43.8387 45.312 33.6207 69.6377 25.7902C98.0127 16.6562 131.537 9.73829 166.796 6.18264C195.366 3.30159 223.416 3.41957 252.563 3.42337" stroke="black" stroke-width="6.28986" stroke-linecap="round"/>
</svg>
