<svg width="1083" height="15" viewBox="0 0 1083 15" fill="none" xmlns="http://www.w3.org/2000/svg">
<path d="M277.797 8.11185C282.192 8.01197 286.552 7.19253 290.953 6.99695M309.906 7.4429C313.864 7.4429 317.778 7.54575 321.724 7.88886M338.225 7.6659C338.989 8.34502 341.2 7.88888 342.09 7.88888C345.822 7.88888 349.475 8.25379 353.164 8.7808M365.205 8.11185C366.107 8.11185 366.973 8.34561 367.869 8.43393C371.121 8.75461 374.429 8.70662 377.692 8.78079M387.726 7.44291C389.382 7.58089 390.942 7.88887 392.632 7.88887C394.827 7.88887 396.942 7.90357 399.098 8.33483" stroke="black" stroke-width="7" stroke-linecap="round"/>
<path d="M3.79687 10.1145C8.19157 10.0147 12.5523 9.19521 16.9527 8.99963M35.9061 9.44559C39.8636 9.44559 43.7783 9.54844 47.724 9.89155M64.2246 9.66858C64.9886 10.3477 67.1997 9.89156 68.0896 9.89156C71.822 9.89156 75.4752 10.2565 79.1643 10.7835M91.2052 10.1145C92.1069 10.1145 92.9727 10.3483 93.8686 10.4366C97.1212 10.7573 100.429 10.7093 103.692 10.7835M113.726 9.44559C115.382 9.58358 116.942 9.89155 118.632 9.89155C120.827 9.89155 122.942 9.90625 125.098 10.3375" stroke="black" stroke-width="7" stroke-linecap="round"/>
<path d="M549.797 7.11185C554.192 7.01197 558.552 6.19253 562.953 5.99695M581.906 6.4429C585.864 6.4429 589.778 6.54575 593.724 6.88886M610.225 6.6659C610.989 7.34502 613.2 6.88888 614.09 6.88888C617.822 6.88888 621.475 7.25379 625.164 7.7808M637.205 7.11185C638.107 7.11185 638.973 7.34561 639.869 7.43393C643.121 7.75461 646.429 7.70662 649.692 7.78079M659.726 6.44291C661.382 6.58089 662.942 6.88887 664.632 6.88887C666.827 6.88887 668.942 6.90357 671.098 7.33483" stroke="black" stroke-width="7" stroke-linecap="round"/>
<path d="M821.797 6.11185C826.192 6.01197 830.552 5.19253 834.953 4.99695M853.906 5.4429C857.864 5.4429 861.778 5.54575 865.724 5.88886M882.225 5.6659C882.989 6.34502 885.2 5.88888 886.09 5.88888C889.822 5.88888 893.475 6.25379 897.164 6.7808M909.205 6.11185C910.107 6.11185 910.973 6.34561 911.869 6.43393C915.121 6.75461 918.429 6.70662 921.692 6.78079M931.726 5.44291C933.382 5.58089 934.942 5.88887 936.632 5.88887C938.827 5.88887 940.942 5.90357 943.098 6.33483" stroke="black" stroke-width="7" stroke-linecap="round"/>
<path d="M413.797 6.66623C418.192 6.7661 422.552 7.58555 426.953 7.78113M445.906 7.33517C449.864 7.33517 453.778 7.23232 457.724 6.88921M474.225 7.11218C474.989 6.43306 477.2 6.8892 478.09 6.8892C481.822 6.8892 485.475 6.52429 489.164 5.99728M501.205 6.66623C502.107 6.66623 502.973 6.43247 503.869 6.34414C507.121 6.02347 510.429 6.07146 513.692 5.99728M523.726 7.33517C525.382 7.19719 526.942 6.88921 528.632 6.88921C530.827 6.88921 532.942 6.87451 535.098 6.44325" stroke="black" stroke-width="7" stroke-linecap="round"/>
<path d="M139.797 8.66891C144.192 8.76879 148.552 9.58824 152.953 9.78381M171.906 9.33786C175.864 9.33786 179.778 9.23501 183.724 8.8919M200.225 9.11487C200.989 8.43574 203.2 8.89189 204.09 8.89189C207.822 8.89189 211.475 8.52697 215.164 7.99996M227.205 8.66891C228.107 8.66891 228.973 8.43516 229.869 8.34683C233.121 8.02615 236.429 8.07414 239.692 7.99997M249.726 9.33786C251.382 9.19987 252.942 8.8919 254.632 8.8919C256.827 8.8919 258.942 8.8772 261.098 8.44593" stroke="black" stroke-width="7" stroke-linecap="round"/>
<path d="M685.797 5.66623C690.192 5.7661 694.552 6.58555 698.953 6.78113M717.906 6.33517C721.864 6.33517 725.778 6.23232 729.724 5.88921M746.225 6.11218C746.989 5.43306 749.2 5.8892 750.09 5.8892C753.822 5.8892 757.475 5.52429 761.164 4.99728M773.205 5.66623C774.107 5.66623 774.973 5.43247 775.869 5.34414C779.121 5.02347 782.429 5.07146 785.692 4.99728M795.726 6.33517C797.382 6.19719 798.942 5.88921 800.632 5.88921C802.827 5.88921 804.942 5.87451 807.098 5.44325" stroke="black" stroke-width="7" stroke-linecap="round"/>
<path d="M957.797 4.66623C962.192 4.7661 966.552 5.58555 970.953 5.78113M989.906 5.33517C993.864 5.33517 997.778 5.23232 1001.72 4.88921M1018.22 5.11218C1018.99 4.43306 1021.2 4.8892 1022.09 4.8892C1025.82 4.8892 1029.48 4.52429 1033.16 3.99728M1045.21 4.66623C1046.11 4.66623 1046.97 4.43247 1047.87 4.34414C1051.12 4.02347 1054.43 4.07146 1057.69 3.99728M1067.73 5.33517C1069.38 5.19719 1070.94 4.88921 1072.63 4.88921C1074.83 4.88921 1076.94 4.87451 1079.1 4.44325" stroke="black" stroke-width="7" stroke-linecap="round"/>
</svg>
