<svg width="205" height="118" viewBox="0 0 205 118" fill="none" xmlns="http://www.w3.org/2000/svg">
<path d="M106.62 105.994C105.409 105.98 104.198 105.98 102.988 105.966C102.705 105.966 102.423 105.966 102.154 105.966C100.297 105.966 98.4405 105.966 96.6512 105.402C93.5974 104.428 91.4449 101.761 90.2745 98.7551C89.6557 97.1887 89.3328 95.5236 89.0772 93.8726C88.7812 91.9816 88.6601 90.0625 88.6467 88.1575C88.6332 84.4744 89.2924 80.6784 90.7184 77.3058C91.3507 75.7959 92.2252 74.4553 93.288 73.2417C94.3777 71.9999 95.7902 71.0544 97.1355 70.1936C98.723 69.1776 100.351 68.2181 102.032 67.3996C103.499 66.6799 105.059 66.186 106.647 65.932C108.382 65.6639 110.158 65.9461 111.826 66.4259C113.252 66.8352 114.611 67.4984 115.862 68.3309C116.764 68.9377 117.584 69.6433 118.405 70.3771C119.468 71.3226 120.544 72.2398 121.62 73.1429C123.665 74.8645 125.306 77.0941 126.584 79.493C127.217 80.6925 127.862 81.9061 128.387 83.1761C129.423 85.6456 130.243 88.1857 131.051 90.7398C131.387 91.7135 131.764 92.659 132.181 93.6045C132.571 94.4088 133.001 95.1849 133.459 95.9328C133.809 96.4549 134.172 96.963 134.562 97.4428C134.791 97.6968 135.019 97.9508 135.275 98.1907C135.477 98.36 135.678 98.5294 135.894 98.6987C136.136 98.8539 136.378 99.0092 136.634 99.1503C136.916 99.2914 137.212 99.4184 137.522 99.5313C137.939 99.6583 138.356 99.7852 138.773 99.8699C139.203 99.9546 139.634 100.011 140.078 100.053C140.495 100.067 140.912 100.067 141.329 100.039C141.786 99.9828 142.23 99.9123 142.674 99.8417C143.037 99.7429 143.401 99.6441 143.777 99.5171C144.208 99.3478 144.638 99.1644 145.069 98.9527C145.405 98.7692 145.728 98.5717 146.051 98.36C146.306 98.1624 146.562 97.9649 146.804 97.7532C147.14 97.4286 147.463 97.1041 147.773 96.7513C148.042 96.4268 148.284 96.0881 148.513 95.7353C148.916 95.0862 149.279 94.4088 149.616 93.7174C149.979 92.913 150.275 92.1087 150.571 91.2761C150.907 90.2036 151.176 89.1312 151.405 88.0305C151.62 86.8592 151.768 85.6739 151.862 84.4885C151.916 83.4443 151.903 82.4 151.849 81.3416C151.755 80.241 151.607 79.1544 151.419 78.0678C151.136 76.6708 150.759 75.302 150.315 73.9614C149.737 72.2822 149.091 70.6311 148.338 69.0365C147.948 68.2463 147.544 67.4702 147.087 66.7223C146.656 66.0449 146.199 65.4099 145.701 64.789C145.055 64.027 144.369 63.3073 143.643 62.644C143.71 62.7146 143.791 62.7852 143.871 62.8557C141.369 60.5979 138.638 58.6223 135.961 56.6185C134.4 55.5319 132.84 54.4877 131.172 53.5845C129.786 52.8931 128.373 52.3286 126.934 51.7642C126.167 51.5243 125.4 51.2844 124.634 51.0304C123.867 50.7764 123.046 50.6211 122.266 50.4236C121.122 50.1978 119.979 49.972 118.835 49.8168C117.611 49.6474 116.387 49.5204 115.163 49.4217C113.898 49.3511 112.633 49.2806 111.369 49.21C108.544 49.0548 105.745 48.5891 103.162 47.3473C100.109 45.8797 98.0773 43.0856 96.8934 39.8541C96.3149 38.2878 95.9921 36.6085 95.8441 34.9434C95.6826 33.1089 95.8979 31.3167 96.3553 29.5528C96.7589 27.9441 97.4046 26.3919 98.1311 24.9102C98.9383 23.2873 99.88 21.7492 101.01 20.3381C103.028 17.7839 105.705 15.7237 108.571 14.3407C109.203 14.0444 109.835 13.734 110.468 13.4235C111.1 13.1272 111.759 12.8873 112.405 12.6191C113.616 12.1111 114.867 11.7301 116.104 11.3773C118.674 10.6435 121.311 10.2484 123.934 9.78273C125.225 9.55695 126.53 9.31707 127.822 9.13362C129.436 8.90784 131.064 8.79496 132.705 8.83729C134.508 8.87963 136.284 9.20416 138.033 9.64161C139.768 10.065 141.477 10.6718 143.172 11.2362C144.786 11.7583 146.387 12.351 147.961 13.0001C151.163 14.3125 154.176 16.1329 156.854 18.3907C158.925 20.1405 160.715 22.2149 162.329 24.4163C163.916 26.5612 165.356 28.7626 166.54 31.1756C167.522 33.1936 168.248 35.3103 169.002 37.427C169.903 39.9811 170.656 42.5918 171.396 45.2024C172.082 47.6295 172.647 50.099 173.159 52.5826C173.737 55.4331 174.302 58.2977 174.827 61.1624C175.446 64.5209 175.863 67.9358 176.32 71.3226C176.778 74.667 177.208 78.0114 177.733 81.3416C177.921 82.2448 178.096 83.1338 178.284 84.0369C178.392 84.5732 178.567 85.0953 178.715 85.6315C178.876 86.2524 179.051 86.8592 179.239 87.466C179.643 88.6513 180.087 89.8085 180.612 90.9374C180.881 91.4737 181.163 91.9958 181.473 92.5179C181.701 92.8707 181.957 93.2094 182.213 93.5339C182.387 93.7315 182.576 93.9431 182.764 94.1266C182.885 94.2395 183.006 94.3382 183.141 94.437C183.369 94.5922 183.598 94.7334 183.84 94.8886C184.109 95.0156 184.365 95.1426 184.648 95.2414C184.943 95.3402 185.239 95.4107 185.535 95.4954C185.845 95.5518 186.168 95.5942 186.491 95.6224C186.827 95.6365 187.163 95.6365 187.5 95.6224C187.957 95.5801 188.401 95.5095 188.858 95.4248C189.289 95.3261 189.706 95.1991 190.136 95.0438C190.432 94.9168 190.715 94.7898 191.011 94.6487C191.401 94.4512 191.764 94.2254 192.127 93.9855C192.477 93.7174 192.827 93.4493 193.163 93.1529C193.553 92.786 193.917 92.3909 194.266 91.9958C194.657 91.4878 195.033 90.9797 195.397 90.4435C195.854 89.6956 196.271 88.9336 196.648 88.1292C197.105 87.1414 197.495 86.1537 197.845 85.1235C198.181 84.0793 198.464 83.0209 198.692 81.9485C198.921 80.6643 199.083 79.3802 199.177 78.0678C199.446 72.8325 199.432 67.5972 199.177 62.3618C199.029 60.6544 198.854 58.9751 198.652 57.2817C198.437 55.5742 198.087 53.895 197.764 52.2157C197.791 52.3286 197.805 52.4274 197.832 52.5403C196.796 48.0528 195.531 43.6219 194.374 39.1627C193.822 37.0601 193.271 34.9575 192.652 32.8831C192.006 30.6958 191.307 28.5227 190.58 26.3354C190.607 26.4342 190.648 26.5471 190.674 26.6459C190.163 25.1783 189.666 23.7107 189.141 22.2431C188.683 22.5818 188.213 22.9205 187.742 23.245C186.585 24.0494 185.428 24.8255 184.257 25.5875C183.154 26.3213 181.957 27.2385 180.639 27.422C179.414 27.5913 178.002 26.8858 177.558 25.6157C177.343 24.9948 177.208 24.388 177.208 23.7248C177.208 23.3156 177.221 22.9204 177.235 22.5112C177.248 21.848 177.289 21.1706 177.356 20.5074C177.477 19.2092 177.571 17.8968 177.786 16.6126C178.029 15.1451 178.284 13.6916 178.567 12.2381C178.984 10.0508 179.455 7.86359 179.939 5.69044C180.221 4.43452 180.531 3.15038 180.948 1.9368C181.284 0.963112 182.051 0.186976 183.047 0.0317507C183.343 -0.0105836 183.652 -0.0105836 183.935 0.0317507C184.876 0.13053 185.535 0.850203 185.993 1.65455C186.141 1.90856 186.289 2.16258 186.437 2.41658C186.692 2.48714 186.948 2.57183 187.204 2.65649C189.343 3.30562 191.334 4.3216 193.19 5.61985C194.361 6.45243 195.504 7.29912 196.634 8.18814C197.145 8.58326 197.616 9.03481 198.101 9.45816C198.746 10.0226 199.473 10.6859 199.957 11.4197C200.388 12.0688 200.576 12.8308 200.361 13.6069C200.145 14.4113 199.5 15.1592 198.692 15.3426C198.545 15.3709 198.397 15.3991 198.262 15.4132C198.249 15.4132 198.235 15.4273 198.235 15.4273C197.791 15.6813 197.347 15.9776 196.917 16.274C195.625 17.2053 194.374 18.2073 193.123 19.1951C193.796 21.0154 194.428 22.8499 195.06 24.6844C195.948 27.2809 196.742 29.9197 197.536 32.5444C198.302 35.155 198.948 37.808 199.634 40.4468C200.32 43.0998 201.06 45.7104 201.746 48.3633C202.432 51.0304 202.903 53.7398 203.334 56.4633C203.778 59.215 203.912 62.0231 204.06 64.8031C204.195 67.5125 204.154 70.2219 204.128 72.9454C204.087 76.9107 203.899 80.9465 202.917 84.7848C202.042 88.2421 200.536 91.5865 198.477 94.437C196.54 97.1041 193.876 99.0656 190.822 100.025C189.302 100.505 187.648 100.702 186.06 100.575C184.338 100.434 182.751 99.9264 181.23 99.0656C178.311 97.4145 176.643 94.1266 175.419 91.0503C174.679 89.2017 174.195 87.2825 173.683 85.3634C173.508 84.7002 173.401 83.9946 173.266 83.3173C173.145 82.7387 173.024 82.1601 172.943 81.5816C172.325 77.7291 171.84 73.8626 171.316 69.9961C170.818 66.3695 170.253 62.7428 169.594 59.1303C168.961 55.927 168.356 52.7237 167.576 49.5487C166.715 46.1055 165.679 42.7328 164.589 39.3602C163.903 37.3987 163.217 35.4655 162.356 33.5887C161.777 32.4033 161.132 31.2603 160.432 30.1455C159.383 28.565 158.253 27.0269 157.055 25.5593C156.248 24.6138 155.387 23.6966 154.486 22.8499C153.706 22.1584 152.898 21.5093 152.064 20.8884C150.988 20.1264 149.858 19.4491 148.701 18.8281C148.741 18.8423 148.768 18.8705 148.809 18.8846C148.768 18.8564 148.728 18.8423 148.688 18.8281C148.634 18.7999 148.58 18.7717 148.526 18.7435C148.526 18.7435 148.54 18.7435 148.54 18.7576C147.208 18.0803 145.849 17.5017 144.463 16.9654C141.665 15.9635 138.853 14.9334 135.961 14.2702C135.06 14.0867 134.158 13.9456 133.23 13.861C132.194 13.8045 131.172 13.8186 130.136 13.8892C128.373 14.0585 126.625 14.3548 124.889 14.6653C123.356 14.9334 121.808 15.2156 120.275 15.4978C119.279 15.7095 118.284 15.9212 117.315 16.2034C116.293 16.4856 115.297 16.8384 114.288 17.1912C114.302 17.1912 114.302 17.1912 114.315 17.1912C113.642 17.4734 112.97 17.7416 112.284 18.0238C111.651 18.2778 111.046 18.6165 110.427 18.9128C109.512 19.4067 108.624 19.9289 107.763 20.5215C107.252 20.9025 106.754 21.3118 106.27 21.7351C105.759 22.2149 105.288 22.7088 104.831 23.2309C104.387 23.7671 103.97 24.3316 103.58 24.9102C103.095 25.6722 102.665 26.4483 102.248 27.2385C101.817 28.1417 101.454 29.0589 101.118 29.9903C100.943 30.5406 100.795 31.105 100.66 31.6836C100.58 32.107 100.526 32.5444 100.485 32.9678C100.472 33.4334 100.472 33.885 100.485 34.3507C100.539 34.9575 100.62 35.5502 100.728 36.1569C100.862 36.7637 101.01 37.3423 101.198 37.935C101.387 38.4289 101.575 38.9087 101.79 39.3743C101.965 39.6989 102.14 40.0235 102.328 40.3339C102.517 40.6161 102.719 40.8984 102.934 41.1665C103.136 41.3923 103.337 41.5898 103.553 41.8015C103.781 41.985 104.01 42.1684 104.239 42.3377C104.4 42.4365 104.548 42.5353 104.723 42.6341C105.18 42.874 105.665 43.0856 106.149 43.2832C106.741 43.4807 107.333 43.6501 107.925 43.7912C108.907 43.9888 109.902 44.1158 110.898 44.2005C113.333 44.3275 115.808 44.3698 118.23 44.7085C119.656 44.906 121.055 45.1318 122.468 45.414C123.651 45.6398 124.849 45.9079 125.992 46.2748C126.719 46.5006 127.445 46.7405 128.172 46.9663C128.831 47.178 129.463 47.4602 130.122 47.7142C132.329 48.5891 134.481 49.6757 136.459 51.0445C137.67 51.877 138.88 52.7237 140.064 53.6127C141.127 54.4171 142.19 55.2214 143.253 56.0399C144.759 57.197 146.226 58.4106 147.598 59.7371C148.849 60.9507 149.939 62.3195 150.894 63.8012C151.849 65.2829 152.629 66.8916 153.315 68.5144C154.755 71.8447 155.818 75.3584 156.342 78.9709C156.854 82.527 156.611 86.1254 155.912 89.6251C155.226 93.0683 153.907 96.455 151.93 99.3055C149.979 102.1 147.033 103.906 143.858 104.71C142.338 105.091 140.777 105.162 139.217 105.035C137.562 104.908 135.826 104.4 134.36 103.595C131.441 101.987 129.463 99.0938 127.997 96.074C126.84 93.675 126.1 91.0785 125.279 88.5385C124.97 87.6918 124.674 86.8451 124.324 86.0125C123.947 85.1235 123.557 84.2627 123.14 83.3878C122.629 82.4282 122.118 81.4546 121.553 80.5232C121.149 79.9023 120.719 79.3096 120.261 78.7311C119.898 78.3077 119.508 77.8985 119.104 77.5033C118.23 76.7131 117.302 75.9934 116.427 75.2173C115.485 74.3847 114.571 73.524 113.575 72.7761C113.172 72.4938 112.768 72.2398 112.351 72.014C111.947 71.8165 111.544 71.6471 111.14 71.4919C110.683 71.3367 110.225 71.1956 109.768 71.0827C109.351 70.998 108.934 70.9415 108.517 70.8992C108.194 70.8851 107.871 70.8851 107.562 70.8992C107.252 70.9274 106.943 70.9839 106.62 71.0403C106.149 71.1532 105.678 71.2943 105.221 71.4496C104.521 71.7318 103.822 72.0422 103.149 72.395C103.243 72.3386 103.337 72.2963 103.418 72.2398C101.75 73.1288 100.109 74.1025 98.5347 75.1891C98.0369 75.556 97.5391 75.937 97.0683 76.3462C96.8396 76.572 96.6243 76.7978 96.4225 77.0377C96.2342 77.2776 96.0458 77.5316 95.871 77.7856C95.6423 78.1666 95.427 78.5476 95.2387 78.9427C95.0234 79.4225 94.8216 79.9305 94.6333 80.4244C94.3239 81.384 94.0817 82.3436 93.8665 83.3314C93.6647 84.432 93.5301 85.5469 93.436 86.6617C93.3822 87.8329 93.3821 89.0042 93.4494 90.1895C93.5436 91.5724 93.7185 92.9412 93.9606 94.31C94.1086 95.0438 94.297 95.7494 94.5257 96.455C94.6602 96.8219 94.7947 97.1888 94.9427 97.5415C95.1041 97.852 95.2656 98.1484 95.4405 98.4447C95.6019 98.6846 95.7633 98.9104 95.9382 99.1361C96.1131 99.3337 96.3015 99.5453 96.5033 99.7288C96.6243 99.8276 96.732 99.9264 96.853 100.011C97.0817 100.166 97.3239 100.307 97.5661 100.448C97.6737 100.505 97.7948 100.547 97.9024 100.604C98.1042 100.674 98.306 100.745 98.5212 100.801C98.871 100.872 99.2342 100.914 99.5975 100.957C101.023 101.027 102.463 101.027 103.902 101.013C104.575 101.013 105.261 101.013 105.947 101.013C107.817 101.027 109.714 101.112 111.598 101.013C112.001 100.971 112.405 100.914 112.808 100.844C112.956 100.815 113.077 100.773 113.212 100.717C113.4 100.646 113.575 100.561 113.75 100.448C113.656 100.505 113.562 100.547 113.481 100.59C113.602 100.519 113.723 100.434 113.844 100.364C114.974 99.7006 116.441 100.082 117.1 101.267C117.746 102.424 117.369 104.019 116.239 104.682C115.485 105.133 114.732 105.486 113.871 105.698C112.714 105.98 111.517 106.008 110.346 106.023C110.077 106.023 109.795 106.023 109.526 106.023C108.571 106.037 107.589 106.008 106.62 105.994ZM183.275 12.8167C183.006 14.256 182.751 15.6813 182.508 17.1207C182.293 18.4048 182.172 19.6889 182.065 20.9872C182.065 21.0295 182.065 21.0719 182.065 21.1142C183.396 20.2534 184.688 19.322 185.993 18.4189C186.423 18.0943 186.854 17.7698 187.284 17.4311C186.706 16.0623 186.087 14.7076 185.589 13.2965C185.065 11.8148 184.567 10.3331 184.083 8.83729C183.8 10.1779 183.544 11.5043 183.275 12.8167ZM190.728 13.2683C190.89 13.6493 191.038 14.0162 191.213 14.3831C191.266 14.3407 191.32 14.2984 191.374 14.2561C192.222 13.5928 193.083 12.9437 193.957 12.3087C193.284 11.7442 192.585 11.1939 191.885 10.6576C191.966 10.7141 192.047 10.7846 192.141 10.8411C191.132 10.1355 190.15 9.42993 189.101 8.79492C189.222 9.16182 189.329 9.52874 189.45 9.88153C189.437 9.82508 189.423 9.78272 189.396 9.72628C189.813 10.9257 190.231 12.1111 190.728 13.2683Z" fill="black"/>
<path d="M148.647 18.7576C148.661 18.7717 148.688 18.7858 148.701 18.7858C148.674 18.7858 148.661 18.7717 148.647 18.7576Z" fill="black"/>
<path fill-rule="evenodd" clip-rule="evenodd" d="M5.46404 42.7687L5.45956 42.7705C5.12314 42.9166 4.78806 43.0622 4.44533 43.185L4.34126 43.2207C3.91363 43.3678 3.44511 43.5289 3.01436 43.5289H2.9367C2.29335 43.4955 1.70546 43.2515 1.30606 42.7412C0.95108 42.2864 0.806862 41.6763 0.895561 41.1216C0.999489 40.4879 1.39523 39.9904 1.79131 39.4924L1.87175 39.3911C2.06152 39.148 2.24819 38.908 2.43168 38.6661C2.59133 38.4555 2.74854 38.2435 2.90339 38.0267C3.35668 37.3204 3.72987 36.5841 4.10842 35.8367L4.10964 35.8345L4.14587 35.7638C4.58866 34.8782 5.05238 34.0085 5.5155 33.14C5.72538 32.7465 5.93507 32.3532 6.14259 31.9589C6.35336 31.493 6.53088 31.0159 6.70834 30.5167C6.70123 30.5334 6.6946 30.55 6.68823 30.5667C6.67977 30.589 6.67178 30.6113 6.66379 30.6335L6.65337 30.6628C6.64287 30.6918 6.63203 30.7207 6.61958 30.7497C6.7971 30.2062 6.96352 29.6293 7.19643 29.108C7.41831 28.6199 7.66232 28.165 7.91744 27.6991C7.98962 27.5677 8.06233 27.4369 8.13525 27.3063L8.22902 27.1385C8.30377 27.0048 8.37859 26.8711 8.45293 26.737L8.5226 26.6108C8.63329 26.4097 8.74271 26.2072 8.84928 26.0019C9.27082 25.1922 9.7367 24.3157 10.4356 23.7167C10.3579 23.506 10.3136 23.2731 10.3136 23.0401C10.3136 21.9641 11.2121 21.0767 12.277 21.0767H12.6431C13.8998 21.0767 14.6028 22.0652 15.2655 22.9971C15.3047 23.0524 15.3439 23.1074 15.383 23.1621C15.5013 23.3265 15.6192 23.4913 15.737 23.6561L15.7726 23.7059C16.4811 24.6972 17.1907 25.6898 17.9909 26.6069C17.9902 26.6049 17.9899 26.6029 17.9899 26.6009C17.9998 26.6109 18.0097 26.6208 18.0117 26.6307L18.0342 26.6564C18.2646 26.9087 18.484 27.161 18.7034 27.4133L18.7109 27.4218C19.1807 27.9151 19.6589 28.4002 20.137 28.8852C20.9573 29.7174 21.7775 30.5494 22.5559 31.4235L22.6323 31.5096L22.636 31.5136C22.6517 31.5309 22.6674 31.5483 22.6832 31.5662L22.7223 31.6097C23.1102 32.0446 23.5009 32.4828 23.8581 32.9461C24.1465 33.3122 24.4349 33.7226 24.5347 34.1996C24.6346 34.6655 24.7012 35.1315 24.5791 35.5973C24.3906 36.2962 23.847 36.7621 23.1814 36.9951C23.0668 37.0343 22.9494 37.0649 22.8305 37.0917C22.7345 37.1133 22.6375 37.1324 22.5402 37.1515C22.3498 37.1889 22.1586 37.2266 21.9722 37.2835C21.2734 37.4832 20.5828 37.7106 19.8923 37.938L19.883 37.9409C19.1955 38.1673 18.5081 38.3937 17.8124 38.5925C17.3185 38.737 16.8245 38.8772 16.3311 39.0173L16.2303 39.046C16.0672 39.0923 15.9041 39.1385 15.7412 39.185C16.1069 40.1578 16.5092 41.1139 16.9694 42.0535C16.9638 42.0424 16.9555 42.0285 16.9471 42.0146L16.952 42.0246L16.9592 42.0388C16.9656 42.0511 16.9723 42.0634 16.9804 42.0757C16.9886 42.1086 17.003 42.1354 17.0189 42.1652C17.0244 42.1755 17.0302 42.1862 17.0359 42.1977L17.0302 42.187L17.0207 42.1706L17.0137 42.1588C17.007 42.1477 17.0003 42.1365 16.995 42.1268C17.3933 42.8898 17.8138 43.6308 18.2783 44.3497L18.3401 44.4363L18.3427 44.4402C18.4223 44.5517 18.5001 44.6609 18.5802 44.7692C18.6439 44.8554 18.7091 44.9409 18.7775 45.0264C19.8535 45.0264 20.7409 45.9249 20.7409 46.9899C20.7409 47.6665 20.5856 48.2434 20.1197 48.7758C19.7204 49.2306 19.1436 49.3859 18.5667 49.3859H18.4891C17.8679 49.3748 17.3576 49.0754 16.8806 48.7204C16.3593 48.3321 15.8823 47.7663 15.5051 47.2339C15.0392 46.5794 14.5954 45.9249 14.2071 45.2372C13.3508 43.7169 12.6176 42.1253 12.0219 40.4859C11.9294 40.5273 11.837 40.5691 11.7445 40.6114C11.1344 40.8998 10.5354 41.166 9.90313 41.399C9.21835 41.6565 8.51224 41.8359 7.80491 42.0155C7.26326 42.153 6.72093 42.2907 6.18694 42.4639C5.94319 42.5605 5.70331 42.6647 5.46404 42.7687ZM10.902 36.6549C10.8403 36.6825 10.7788 36.7108 10.7172 36.7397C10.6799 36.7572 10.6426 36.7748 10.6053 36.7926C10.5371 36.8252 10.4689 36.8582 10.4006 36.8911C10.2171 36.9799 10.0333 37.0689 9.84761 37.1504C9.32627 37.3834 8.80486 37.6052 8.26132 37.8048C7.96185 37.8936 7.66232 37.9713 7.36279 38.0489C7.62901 37.5276 7.88419 36.995 8.15041 36.4737C8.37757 36.0471 8.61021 35.6233 8.84285 35.1995C9.0761 34.7747 9.30934 34.3499 9.53704 33.9223C10.0045 33.0416 10.3016 32.1184 10.6056 31.1734L10.6241 31.1158C10.7462 30.7941 10.8792 30.4946 11.0235 30.184C11.3562 29.5739 11.7224 28.9748 12.0441 28.3647C12.3214 27.8323 12.5987 27.2998 12.9315 26.7895C12.9483 26.7671 12.9624 26.7475 12.9764 26.7278C12.9901 26.7087 13.0038 26.6894 13.0203 26.6675C13.0425 26.6564 13.0536 26.6454 13.0757 26.6232C13.3087 26.9559 13.5528 27.2887 13.7857 27.6104C14.3958 28.4201 15.0613 29.1856 15.738 29.9511C16.3112 30.6006 16.9273 31.21 17.5429 31.8187C18.1782 32.4468 18.8128 33.0743 19.3987 33.7448C19.4164 33.7801 19.4371 33.8092 19.4593 33.8353C19.472 33.8502 19.4851 33.8641 19.4984 33.8777L19.5207 33.9002C19.2991 33.9679 19.0844 34.039 18.8708 34.1098C18.7848 34.1382 18.699 34.1666 18.6131 34.1947C18.5701 34.2088 18.527 34.2228 18.4838 34.2367L18.356 34.2773C17.2689 34.6323 16.1817 34.9761 15.0724 35.2757C14.9287 35.3156 14.785 35.3549 14.6412 35.3942L14.5984 35.2174L14.551 35.0205C14.5191 34.8587 14.4867 34.6969 14.4541 34.535L14.3934 34.2338C14.3583 34.0597 14.3231 33.8857 14.2884 33.7116L14.2439 33.4878C14.1892 33.2111 14.1358 32.9345 14.0851 32.6577C13.8855 31.6039 12.9758 30.8274 11.8665 30.9716C10.846 31.1047 9.99182 32.1363 10.1915 33.1902C10.4061 34.3511 10.6379 35.5036 10.902 36.6549Z" fill="black"/>
<path d="M85.0581 56.4744C85.9678 55.9418 86.3116 54.7105 85.7569 53.7899C84.5811 51.8264 83.4052 49.8629 81.8744 48.1546C80.6874 46.8345 79.2675 45.7696 77.6479 45.0597C76.8714 44.7157 76.0616 44.5605 75.2186 44.505C74.5308 44.4606 73.7322 44.6603 73.2552 45.1817C72.7116 45.7807 72.5341 46.5683 72.8336 47.3337C73.1331 48.1102 73.9318 48.6649 74.7638 48.6649C75.0411 48.6649 75.3184 48.6094 75.5514 48.4985C75.6734 48.5317 75.7843 48.5539 75.8953 48.5984C76.1171 48.676 76.3279 48.7758 76.5386 48.8757C76.816 49.0309 77.0711 49.1863 77.3263 49.3527C77.6146 49.5523 77.892 49.7741 78.1582 49.996C78.5465 50.362 78.9126 50.7503 79.2675 51.1386C79.7223 51.6822 80.1439 52.259 80.5433 52.8469L80.8364 53.3153L80.8409 53.3226C81.3513 54.1377 81.8591 54.9488 82.3514 55.7755C82.7175 56.3856 83.383 56.7406 84.0597 56.7406C84.4257 56.7406 84.7586 56.6518 85.0581 56.4744Z" fill="black"/>
<path d="M52.3227 56.3967L52.3448 56.3745C52.3539 56.3684 52.3622 56.3615 52.3701 56.3542C52.3767 56.3482 52.383 56.3419 52.3893 56.3356C52.4031 56.3218 52.417 56.308 52.4336 56.2969C52.9202 55.8555 53.3665 55.3795 53.812 54.9042L53.8137 54.9026C54.241 54.4467 54.6678 53.9914 55.1292 53.568C55.6283 53.1354 56.1387 52.736 56.6822 52.3699C57.322 51.9504 57.9717 51.5706 58.6501 51.221C58.6117 51.2388 58.5732 51.2553 58.5347 51.2717C59.896 50.5873 61.3094 50.0071 62.7214 49.4276C63.369 49.1617 64.0162 48.8961 64.6581 48.6205C65.6343 48.199 66.1224 47.0342 65.7008 46.0469C65.2793 45.0707 64.1145 44.5826 63.1273 45.0042C62.828 45.1324 62.5281 45.26 62.2278 45.3872L61.2242 45.8111C60.1413 46.2678 59.0564 46.7254 57.9801 47.2006C56.1608 47.9994 54.4082 49.0421 52.8774 50.3289C52.123 50.9612 51.4352 51.66 50.7697 52.3921C50.6112 52.5683 50.4557 52.7444 50.2968 52.9156C50.1555 53.0679 50.0114 53.2163 49.86 53.3572C49.8212 53.3849 49.7852 53.4154 49.7492 53.4459L49.7258 53.4655L49.7025 53.4849C49.6816 53.5021 49.6604 53.5188 49.6382 53.5347C48.8616 54.2669 48.8949 55.5758 49.6382 56.3079C50.0153 56.6962 50.5145 56.8737 51.0026 56.8737C51.4907 56.8626 51.9566 56.6962 52.3227 56.3967Z" fill="black"/>
<path d="M58.6501 51.221C58.6893 51.2029 58.7285 51.1833 58.7677 51.1608L58.6964 51.1972L58.6501 51.221Z" fill="black"/>
<path d="M46.2644 77.1012C46.2509 77.7242 46.2374 78.3509 46.1771 78.971C46.1328 80.0026 45.2565 80.8567 44.2026 80.8456C43.1266 80.8456 42.2391 79.9471 42.2391 78.8822C42.2391 78.7769 42.2493 78.6666 42.2593 78.558C42.2641 78.5064 42.2689 78.4552 42.2725 78.4052C42.3002 77.8217 42.3184 77.2342 42.3365 76.6461C42.3413 76.4887 42.3462 76.3312 42.3513 76.1738C42.3589 75.9348 42.367 75.6959 42.3761 75.4572C42.3924 75.0336 42.4121 74.6107 42.4388 74.1898V74.212C42.5899 71.8523 42.7792 69.4926 42.9682 67.1377L43.013 66.5789C43.0587 66.0095 43.1041 65.4404 43.1488 64.8718C43.2264 63.7957 44.3468 63.0525 45.3563 63.1856C46.4656 63.3409 47.1201 64.3392 47.0424 65.4042C47.0002 65.9528 46.9548 66.5013 46.9083 67.0499C46.8864 67.3086 46.8642 67.5674 46.842 67.8262C46.7381 69.0378 46.6342 70.2494 46.5543 71.461V71.4055C46.5531 71.412 46.5519 71.4187 46.5509 71.4255L46.549 71.4398L46.548 71.4477L46.5467 71.4617C46.5451 71.4804 46.5442 71.4995 46.5438 71.5183C46.5432 71.5406 46.5432 71.5626 46.5432 71.583V71.6496L46.3768 74.2453C46.3656 74.5087 46.353 74.7707 46.3405 75.0323C46.3161 75.5421 46.2917 76.0505 46.277 76.5637C46.2721 76.7424 46.2682 76.9216 46.2644 77.1012Z" fill="black"/>
<path d="M4.14776 35.7554C4.14668 35.7579 4.146 35.7613 4.14587 35.7638L4.16137 35.7316L4.15568 35.7409L4.15128 35.7483C4.14986 35.7508 4.14864 35.7531 4.14776 35.7554Z" fill="black"/>
<path d="M54.6744 103.742C55.4066 102.998 55.3954 101.867 54.7742 101.079C54.7964 101.101 54.8076 101.124 54.8297 101.135C54.7441 101.025 54.6619 100.908 54.5811 100.79C54.5154 100.694 54.4506 100.597 54.386 100.502C54.2827 100.331 54.1772 100.163 54.0719 99.9946C53.9537 99.8057 53.8359 99.6175 53.722 99.4273C53.6666 99.3347 53.6122 99.2416 53.5591 99.1477C53.5158 99.0711 53.4733 98.9939 53.432 98.9161C53.077 98.2506 52.7109 97.5739 52.3448 96.9083C51.6904 95.5771 51.047 94.246 50.4369 92.9038C49.9932 91.9276 48.8728 91.4284 47.8633 91.861C46.8982 92.2603 46.3769 93.4583 46.8206 94.4345C47.586 96.0985 48.3625 97.7735 49.2277 99.382L49.2287 99.3841C49.6721 100.204 50.1156 101.025 50.5922 101.822C50.9916 102.477 51.3798 103.165 51.9012 103.73C52.2561 104.119 52.7553 104.307 53.2545 104.307C53.7759 104.318 54.2973 104.119 54.6744 103.742Z" fill="black"/>
<path d="M71.1142 114.513C70.9146 114.868 70.6372 115.145 70.3044 115.378C69.7497 115.766 69.0398 115.933 68.352 115.933C68.1967 115.933 68.0303 115.933 67.875 115.911C66.7657 115.789 65.7119 115.389 64.7247 114.912C63.7706 114.446 62.8388 113.914 61.9514 113.337C61.5335 113.068 61.1155 112.8 60.6976 112.529C60.511 112.409 60.3245 112.288 60.138 112.166C59.9659 112.054 59.7939 111.941 59.6218 111.828C58.7343 111.241 58.3572 110.109 58.923 109.144C59.4332 108.268 60.709 107.857 61.6075 108.445C63.1273 109.443 64.658 110.442 66.2776 111.296C66.677 111.484 67.0653 111.651 67.4868 111.806C67.5645 111.828 67.631 111.851 67.6976 111.873C68.1857 111.329 68.9621 111.03 69.6832 111.274C70.5817 111.584 71.447 112.316 71.3916 113.359C71.3693 113.77 71.325 114.147 71.1142 114.513Z" fill="black"/>
<path d="M83.9454 116.691L83.9265 116.694C83.644 116.743 83.3617 116.792 83.0793 116.841C82.7774 116.894 82.4755 116.947 82.1733 117.001C81.8116 117.065 81.4496 117.131 81.0868 117.197C80.9869 117.208 80.8871 117.22 80.7984 117.242C79.8665 117.242 79.0235 116.454 78.8904 115.533C78.7461 114.424 79.5227 113.514 80.5765 113.315C81.2209 113.196 81.8675 113.086 82.5143 112.976C83.3151 112.839 84.1162 112.703 84.9139 112.549C85.5351 112.405 86.1563 112.25 86.7664 112.05C87.1657 111.895 87.554 111.729 87.9423 111.551C88.3527 111.34 88.741 111.096 89.1292 110.841C89.2114 110.784 89.2935 110.725 89.3756 110.666L89.4965 110.579C90.219 110.058 90.9605 109.522 91.8803 109.466C92.9563 109.399 93.8438 110.419 93.8438 111.429C93.8438 112.25 93.3667 112.882 92.69 113.193L92.5569 113.259H92.5459C92.435 113.315 92.324 113.381 92.2241 113.448L92.0021 113.602C91.2786 114.107 90.5565 114.609 89.7615 115.012C88.3416 115.733 86.7997 116.188 85.2356 116.465C84.8116 116.54 84.3885 116.613 83.966 116.687L83.9454 116.691Z" fill="black"/>
<path d="M52.3116 56.4189C52.2894 56.4411 52.2784 56.4521 52.2561 56.4633C52.2784 56.4521 52.3005 56.43 52.3116 56.4189Z" fill="black"/>
<path d="M52.4336 56.3079L52.3782 56.3635C52.4004 56.3523 52.4225 56.3301 52.4336 56.3079Z" fill="black"/>
<path d="M86.8662 74.2675C86.1341 76.4639 84.9029 78.4496 83.6715 80.4019C83.2833 81.0121 82.6288 81.3671 81.952 81.3781C81.6193 81.3781 81.2865 81.2894 80.9758 81.1119C80.0773 80.5906 79.7002 79.337 80.277 78.4274C81.0314 77.2294 81.7635 76.0202 82.429 74.7778C82.6731 74.2564 82.895 73.7129 83.0946 73.1693C83.2611 72.6923 83.3942 72.2042 83.5162 71.705C83.6272 71.1171 83.7047 70.5181 83.7491 69.9191C83.8157 68.7211 83.8047 67.5341 83.7381 66.336C83.7278 66.1924 83.7152 66.0488 83.7002 65.9051C83.6955 65.8605 83.6907 65.8159 83.6855 65.7712C83.6714 65.6489 83.6557 65.5265 83.6382 65.4042C83.6382 65.3821 83.6271 65.371 83.6271 65.3487C83.25 64.3948 83.7492 63.2522 84.7031 62.8528C85.7015 62.4424 86.8441 62.9305 87.2767 63.9067C87.5706 64.5573 87.6163 65.337 87.6578 66.0486L87.6649 66.1696C87.7205 67.1347 87.7648 68.122 87.7204 69.0982L87.7081 69.3459C87.6688 70.1415 87.6292 70.9445 87.4985 71.7383C87.3544 72.6036 87.1435 73.4355 86.8662 74.2675Z" fill="black"/>
<path d="M66.6659 83.6744C67.7086 83.4415 68.3077 82.2545 68.0414 81.2561C67.7419 80.1912 66.6659 79.6476 65.6232 79.8916C65.5344 79.9138 65.4678 79.9249 65.3902 79.9471C65.135 79.9915 64.891 80.0248 64.6359 80.047C63.8815 80.0914 63.1383 80.0803 62.3951 80.047C60.6025 79.9219 58.8163 79.7216 57.0315 79.5214L57.0289 79.5212L57.0189 79.5202L56.9994 79.5182C56.4203 79.4532 55.8413 79.3882 55.2623 79.3259C54.1974 79.2039 53.199 79.9249 53.0548 81.012C52.9106 82.0437 53.6649 83.1086 54.7299 83.2195C56.1386 83.3749 57.5586 83.5302 58.9674 83.6744L59.4044 83.7197C60.7729 83.8623 62.1643 84.0072 63.5377 84.0072C64.6026 83.9961 65.6342 83.9074 66.6659 83.6744Z" fill="black"/>
<path d="M36.3155 67.7892C36.1269 68.0221 35.8718 68.1996 35.5945 68.3217C35.3393 68.4326 35.0842 68.4659 34.829 68.4659C34.5739 68.4659 34.3298 68.4215 34.0636 68.366C33.747 68.2945 33.4492 68.1102 33.1789 67.9429L33.1096 67.9001C32.8545 67.7448 32.6104 67.5673 32.3775 67.3677C31.8672 66.9461 31.368 66.5245 30.8688 66.0809L27.308 62.8195C25.4221 61.1 23.5696 59.3586 21.7171 57.617C20.9406 56.8848 20.9849 55.5869 21.7171 54.8437C22.4936 54.0672 23.7138 54.1115 24.4904 54.8437L24.4942 54.8474L24.4958 54.849C27.5641 57.7315 30.6325 60.6142 33.7749 63.412C34.2379 63.8105 34.7116 64.2177 35.2062 64.5833C35.5834 64.6499 35.9383 64.8273 36.2268 65.1158C36.9478 65.8368 36.9811 67.0238 36.3155 67.7892Z" fill="black"/>
</svg>
