<svg width="45" height="45" viewBox="0 0 45 45" fill="none" xmlns="http://www.w3.org/2000/svg">
<path d="M32.0869 4.11846C31.0977 3.74469 30.0061 3.74469 29.0169 4.11846C28.4937 4.32302 28.017 4.63058 27.6151 5.02291C27.2131 5.41523 26.894 5.88431 26.6768 6.40231C26.4371 6.89185 26.3125 7.42972 26.3125 7.9748C26.3125 8.51988 26.4371 9.05775 26.6768 9.54728C26.7464 9.69871 26.8732 9.81633 27.0294 9.87425C27.1856 9.93218 27.3585 9.92567 27.5099 9.85616C27.6613 9.78666 27.7789 9.65984 27.8369 9.50361C27.8948 9.34739 27.8883 9.17455 27.8188 9.02312C27.7073 8.69129 27.673 8.33841 27.7184 7.99132C27.7638 7.64423 27.8878 7.31206 28.0809 7.02007C28.2503 6.72985 28.4771 6.47724 28.7475 6.27768C29.0178 6.07812 29.3261 5.9358 29.6533 5.85943C30.2182 5.74499 30.8051 5.82412 31.3194 6.08407C31.8114 6.28402 32.2071 6.66632 32.4239 7.15111C32.6949 7.702 32.7865 8.3239 32.686 8.92952C32.6329 9.21715 32.5227 9.49123 32.3619 9.73558C32.2012 9.97994 31.9931 10.1896 31.75 10.3522C31.3569 10.633 30.6081 10.8577 30.1213 11.1947C29.9169 11.3211 29.7337 11.4791 29.5785 11.6627C29.4179 11.8876 29.3034 12.1421 29.2415 12.4115C29.1733 12.7313 29.1419 13.0579 29.1479 13.3849C29.1739 13.5373 29.2531 13.6756 29.3713 13.7753C29.4894 13.8751 29.6391 13.9297 29.7937 13.9297C29.9484 13.9297 30.098 13.8751 30.2162 13.7753C30.3344 13.6756 30.4135 13.5373 30.4396 13.3849C30.4214 13.2107 30.4214 13.035 30.4396 12.8607C30.477 12.7457 30.534 12.6381 30.6081 12.5425L32.4801 11.7937C32.9709 11.5497 33.4068 11.2079 33.7609 10.7895C34.115 10.371 34.3799 9.88458 34.5393 9.36008C34.7997 8.34861 34.7341 7.28077 34.3521 6.30871C34.1403 5.81062 33.8307 5.3601 33.4416 4.98388C33.0525 4.60765 32.5919 4.31336 32.0869 4.11846Z" fill="black"/>
<path d="M29.4846 15.3878C29.1816 15.4174 28.893 15.5313 28.6514 15.7166C28.4099 15.9019 28.2251 16.1511 28.1181 16.4361C28.0833 16.6129 28.0858 16.7951 28.1256 16.9708C28.1654 17.1465 28.2415 17.312 28.3491 17.4566C28.4566 17.6011 28.5932 17.7216 28.7501 17.8102C28.907 17.8989 29.0807 17.9537 29.26 17.9712C29.5999 17.963 29.9292 17.8509 30.2036 17.6502C30.478 17.4494 30.6844 17.1695 30.795 16.848C30.8051 16.666 30.7792 16.4838 30.7188 16.3119C30.6584 16.1399 30.5646 15.9816 30.4429 15.8459C30.3211 15.7103 30.1738 15.6 30.0094 15.5214C29.845 15.4428 29.6666 15.3974 29.4846 15.3878Z" fill="black"/>
<path d="M10.1086 22.1461C9.13999 22.1655 8.17514 22.272 7.22566 22.4643C7.07672 22.4643 6.93387 22.5235 6.82855 22.6288C6.72323 22.7341 6.66406 22.877 6.66406 23.0259C6.66406 23.1748 6.72323 23.3177 6.82855 23.423C6.93387 23.5283 7.07672 23.5875 7.22566 23.5875C8.42375 23.5875 9.19127 23.8496 10.6702 23.8121C11.4562 23.7667 12.2381 23.6666 13.0102 23.5126C13.093 23.5103 13.1744 23.4913 13.2497 23.4568C13.325 23.4223 13.3926 23.3731 13.4485 23.312C13.5044 23.2508 13.5474 23.1791 13.575 23.101C13.6026 23.0229 13.6143 22.9401 13.6092 22.8574C13.6094 22.773 13.5922 22.6895 13.5589 22.612C13.5255 22.5345 13.4766 22.4647 13.4152 22.4068C13.3539 22.3489 13.2813 22.3042 13.2019 22.2755C13.1226 22.2467 13.0382 22.2345 12.954 22.2397C12.2801 22.2397 11.7185 22.1273 11.213 22.1086C10.7076 22.0899 10.4455 22.1273 10.1086 22.1461Z" fill="black"/>
<path d="M6.87145 30.5325C6.87539 30.6788 6.93279 30.8187 7.03281 30.9256C7.13284 31.0325 7.26856 31.0991 7.41433 31.1128C8.64986 31.2813 9.97898 31.3749 11.3268 31.431L13.854 31.5246H16.3438C18.3281 31.4123 20.3686 31.1315 22.1096 31.0005C22.2784 31.0005 22.4403 30.9334 22.5597 30.814C22.679 30.6947 22.7461 30.5328 22.7461 30.364C22.7412 30.1935 22.67 30.0316 22.5477 29.9127C22.4253 29.7939 22.2614 29.7274 22.0909 29.7275C20.3499 29.6152 18.3469 29.4654 16.3064 29.428H13.854L7.47049 29.9521C7.39205 29.9468 7.31337 29.9581 7.23955 29.9851C7.16573 30.0122 7.0984 30.0544 7.04194 30.1091C6.98547 30.1638 6.94112 30.2298 6.91175 30.3027C6.88238 30.3756 6.86865 30.4539 6.87145 30.5325Z" fill="black"/>
<path d="M29.3531 29.1473C29.1825 29.1472 29.0186 29.2137 28.8963 29.3325C28.7739 29.4514 28.7028 29.6133 28.6979 29.7838C28.6979 31.2065 28.6043 32.5356 28.5107 33.5278C28.4776 34.1056 28.4088 34.6807 28.3048 35.25C28.3154 35.2994 28.3154 35.3504 28.3048 35.3998C28.024 35.3998 27.4062 35.6057 26.7884 35.6057C24.411 35.6057 20.5359 35.3436 18.6265 35.3062C18.2342 35.2707 17.8394 35.2707 17.4471 35.3062C17.2091 35.3326 16.9891 35.446 16.8293 35.6244C16.3052 36.2047 15.7436 37.4964 14.7889 39.0502C14.3668 39.722 13.8775 40.3492 13.3287 40.9222C12.4604 41.6984 11.4005 42.2283 10.2586 42.4572C10.6478 41.4817 10.8876 40.453 10.97 39.4059C11.1282 38.3196 10.979 37.2106 10.5394 36.2047C10.3286 35.775 9.9696 35.4359 9.52852 35.25C8.92098 35.0702 8.29006 34.9819 7.65651 34.9879H2.52721C2.36221 34.9552 2.1996 34.9115 2.04049 34.8569C2.05977 34.5327 2.05977 34.2076 2.04049 33.8835C1.85329 30.3828 1.59121 22.6514 1.75969 19.3567C1.75969 18.8325 2.02177 18.3271 1.96561 18.1586C3.01852 17.8905 4.09909 17.746 5.18546 17.728C6.96387 17.597 9.09796 17.5408 11.101 17.5034C11.2485 17.4987 11.3886 17.438 11.4929 17.3337C11.5973 17.2294 11.6579 17.0892 11.6626 16.9418C11.6627 16.8664 11.6475 16.7918 11.6181 16.7225C11.5888 16.6531 11.5457 16.5903 11.4916 16.5379C11.4374 16.4855 11.3733 16.4445 11.303 16.4174C11.2326 16.3903 11.1576 16.3777 11.0823 16.3802H4.11842C2.96888 16.3481 1.82778 16.5853 0.786243 17.0728C0.537433 17.405 0.388116 17.801 0.355681 18.2148C0.124844 20.4037 0.00612851 22.6031 0 24.8042V34.5948C0.00410691 34.9586 0.0353942 35.3215 0.0936004 35.6806C0.121322 35.9308 0.22597 36.1663 0.393122 36.3545C1.05693 36.8003 1.83993 37.0352 2.63953 37.0284C4.51154 37.1595 8.72356 37.0284 8.74228 37.1595C8.91839 38.2992 8.8739 39.4622 8.61124 40.5852C8.38445 41.5062 7.96317 42.3679 7.37571 43.1125C7.27143 43.2313 7.19537 43.3721 7.15323 43.5245C7.11109 43.6769 7.10395 43.8368 7.13235 43.9923C7.16373 44.2127 7.26697 44.4165 7.42606 44.5722C7.58515 44.7279 7.79119 44.8268 8.01219 44.8534C8.30383 44.8973 8.6004 44.8973 8.89204 44.8534C11.0414 44.6511 13.0753 43.7879 14.714 42.3824C15.3498 41.7103 15.9086 40.9694 16.3801 40.1734C17.1289 38.9753 17.5594 37.8334 17.9526 37.1969H18.3831C20.1428 37.1969 23.9991 37.3279 26.5638 37.1969C27.3185 37.2036 28.0717 37.1282 28.8102 36.9723C29.0034 36.9217 29.1785 36.8179 29.3156 36.6727C29.6304 36.1807 29.7991 35.6095 29.8024 35.0254C29.9334 33.8273 29.9896 31.9178 29.9896 29.7838C29.9896 29.615 29.9225 29.4531 29.8031 29.3337C29.6838 29.2143 29.5219 29.1473 29.3531 29.1473Z" fill="black"/>
<path d="M44.2548 2.17153C44.2177 1.78386 44.0607 1.41741 43.8055 1.1232C42.7002 0.596411 41.4918 0.321479 40.2674 0.318241C36.0367 0 28.8294 0 27.8186 0C25.3662 0 21.7533 0.205921 19.0388 0.486722C17.6064 0.546885 16.1946 0.850757 14.8643 1.38529C14.66 1.56142 14.516 1.79708 14.4524 2.05921C14.4524 2.24641 14.3588 2.63953 14.3027 3.21985C14.1529 5.14802 14.0406 9.36004 14.0967 13.1041C14.077 15.3449 14.2147 17.5843 14.5086 19.8058C14.5673 20.2341 14.7349 20.6402 14.9953 20.9852C15.1749 21.1544 15.3936 21.2766 15.6318 21.3409C16.3909 21.4803 17.163 21.5368 17.9344 21.5094C20.4429 21.5094 24.3553 21.2286 26.115 21.2286H26.5643C27.0136 21.8463 27.4816 22.9883 28.2678 24.2051C28.7539 24.9729 29.3186 25.6881 29.9527 26.3391C31.3545 27.5597 33.088 28.3352 34.9322 28.5668C35.3585 28.6415 35.7913 28.6728 36.2239 28.6604C36.391 28.6597 36.5527 28.6017 36.6822 28.4961C36.8116 28.3905 36.901 28.2436 36.9352 28.0801C36.9584 27.9844 36.9568 27.8843 36.9306 27.7893C36.9044 27.6943 36.8545 27.6076 36.7855 27.5372C36.0121 26.5521 35.5031 25.3858 35.3066 24.1489C35.1213 23.2914 35.1213 22.4043 35.3066 21.5468C35.6061 20.2926 36.4672 21.1537 41.9335 20.8542C42.6517 20.8727 43.36 20.6843 43.974 20.3113C44.092 20.1584 44.1693 19.978 44.1986 19.7871C44.1986 19.5999 44.1986 19.1694 44.2922 18.589C44.442 16.249 44.5917 11.101 44.5917 7.16979C44.5664 5.49898 44.454 3.83062 44.2548 2.17153ZM42.7946 18.7201C42.8053 18.8946 42.8053 19.0697 42.7946 19.2442C42.5352 19.3522 42.2655 19.4338 41.9897 19.4876C36.748 19.9369 33.6031 18.2146 34.0523 23.5311C34.1573 24.8374 34.5199 26.1099 35.1194 27.2752C33.6432 27.0486 32.2645 26.3982 31.1507 25.4031C30.6098 24.8281 30.127 24.201 29.7093 23.5311C28.792 22.0335 28.2866 20.667 27.8373 20.0679C27.6825 19.903 27.4792 19.7916 27.257 19.7497C26.8644 19.7212 26.4702 19.7212 26.0776 19.7497C24.2056 19.7497 20.2931 19.8807 17.9156 19.7497L16.5865 19.5438C16.5865 19.1132 16.2308 18.0649 16.1747 17.054C16.0249 13.31 16.1747 7.11363 16.3244 4.0997V3.01393H16.5304C17.4102 2.84545 18.7955 2.67697 20.2744 2.54593C22.7272 2.32304 25.1875 2.19191 27.6501 2.15281C28.3802 2.15281 32.9104 2.02177 36.8604 2.15281C38.4622 2.16217 40.0622 2.26217 41.6527 2.45233C41.8528 2.50059 42.0473 2.56961 42.233 2.65825C42.277 2.8998 42.3082 3.1435 42.3266 3.38833C42.4577 4.69874 42.5138 6.81411 42.5513 9.00436C42.7946 12.6735 42.7946 16.8481 42.7946 18.7201Z" fill="black"/>
</svg>
