<svg width="77" height="66" viewBox="0 0 77 66" fill="none" xmlns="http://www.w3.org/2000/svg">
<path fill-rule="evenodd" clip-rule="evenodd" d="M21.3557 28.9357C19.7835 28.3121 18.2986 27.4878 16.9379 26.4832C15.9818 25.7946 15.1399 24.9601 14.4428 24.0102C13.5728 22.9003 13.0404 21.5636 12.9089 20.1595C13.1556 19.2388 13.5531 18.3867 15.1564 18.5061C15.2977 18.5109 15.4367 18.5438 15.5652 18.603C15.6937 18.6622 15.809 18.7464 15.9045 18.8508C16 18.9551 16.0736 19.0775 16.1212 19.2108C16.1687 19.344 16.1891 19.4854 16.1813 19.6266C16.1699 20.3002 14.9326 20.8145 16.3708 22.4968C17.1083 23.4214 18.0058 24.2062 19.0205 24.8138C20.0783 25.4384 21.196 25.9551 22.357 26.3563C24.1686 26.9785 26.1395 26.9554 27.9361 26.291C29.7326 25.6265 31.2443 24.3617 32.2151 22.7105C33.2676 21.2139 33.7534 19.3918 33.5855 17.5699C33.4177 15.748 32.6072 14.0453 31.299 12.7662C29.9064 11.6212 28.2272 10.8789 26.4431 10.6195C24.659 10.3601 22.8379 10.5935 21.1769 11.2945C19.3388 11.7555 17.6133 12.5842 16.1043 13.7305C14.5954 14.8769 13.3344 16.3171 12.3976 17.9643C10.115 23.2315 9.44686 29.0575 10.4776 34.7047C11.372 40.4541 13.6342 45.9046 17.074 50.5975C17.1978 50.7233 17.2937 50.8739 17.3553 51.0394C17.4169 51.2049 17.4428 51.3815 17.4313 51.5577C17.4199 51.7339 17.3713 51.9056 17.2888 52.0617C17.2063 52.2178 17.0917 52.3547 16.9526 52.4635C16.8134 52.5722 16.6529 52.6503 16.4815 52.6926C16.3101 52.7349 16.1316 52.7405 15.9579 52.709C15.7842 52.6776 15.6191 52.6097 15.4734 52.5099C15.3277 52.4102 15.2048 52.2807 15.1126 52.1301C11.2097 47.1717 8.54479 41.3544 7.33872 35.1606C5.96445 28.8559 6.47939 22.286 8.81912 16.2724C9.95186 14.0691 11.5324 12.1269 13.4595 10.5701C15.3866 9.01327 17.6178 7.87629 20.0099 7.232C22.4183 6.33332 25.0303 6.12762 27.5497 6.63823C30.0691 7.14884 32.3949 8.35533 34.2634 10.1208C36.1281 12.0747 37.2373 14.628 37.3928 17.3244C37.5483 20.0209 36.74 22.6848 35.1124 24.8401C33.6415 27.0023 31.4694 28.5906 28.9631 29.3367C26.4568 30.0829 23.7697 29.9412 21.3557 28.9357Z" fill="black"/>
<path fill-rule="evenodd" clip-rule="evenodd" d="M67.1855 37.7193C65.7826 38.6445 64.16 39.1824 62.4822 39.2784C60.1855 39.38 57.8875 39.1071 55.6784 38.4704C54.1152 38.1453 52.658 37.4351 51.439 36.404C50.2741 35.4099 49.3449 34.1689 48.719 32.7712C48.5789 32.5228 48.5418 32.2294 48.6156 31.954C48.6894 31.6786 48.8682 31.4431 49.1137 31.2981C49.2358 31.225 49.3713 31.1773 49.5122 31.1576C49.653 31.138 49.7964 31.1468 49.9338 31.1836C50.0712 31.2205 50.1998 31.2845 50.312 31.372C50.4242 31.4594 50.5176 31.5685 50.5868 31.6928C51.1224 32.7987 51.874 33.7862 52.7973 34.597C53.7758 35.3026 54.9059 35.7696 56.0972 35.9605C58.0342 36.42 60.0325 36.5652 62.0155 36.3904C63.1685 36.2276 64.2608 35.773 65.1888 35.0697C66.4586 33.9729 67.4833 32.6212 68.1963 31.1024C68.9093 29.5836 69.2946 27.9317 69.3272 26.2542C69.59 24.7584 69.3631 23.2178 68.6801 21.8614C67.9971 20.5049 66.8946 19.4052 65.5365 18.7256C62.1308 16.994 58.1907 16.6346 54.5279 17.7212C52.8472 18.545 51.3543 19.7064 50.1426 21.1329C48.9308 22.5594 48.0261 24.2204 47.4851 26.0123C45.8059 30.659 45.2733 35.6426 45.9327 40.5393C46.5239 45.6286 47.8277 50.6096 49.806 55.3359C49.9311 55.6397 49.9319 55.9805 49.8081 56.2848C49.6844 56.5892 49.446 56.8328 49.1444 56.963C48.8453 57.0878 48.5089 57.089 48.2088 56.9664C47.9088 56.8437 47.6696 56.6072 47.5435 56.3085C44.8662 50.4704 43.2043 44.2184 42.6292 37.8214C42.229 33.4248 42.7353 28.9927 44.1166 24.7995C44.7718 22.4613 45.9167 20.2891 47.4753 18.427C49.0339 16.5649 50.9706 15.0555 53.157 13.9988C55.4493 13.225 57.8717 12.9106 60.2856 13.0736C62.6995 13.2367 65.0576 13.8739 67.2251 14.9489C68.9821 15.7172 70.4841 16.9696 71.5558 18.5598C72.6275 20.15 73.2245 22.0123 73.2771 23.9292C73.4965 26.5539 73.0538 29.1917 71.9895 31.6009C70.9253 34.0102 69.2735 36.1138 67.1855 37.7193Z" fill="black"/>
</svg>
