<svg width="100" height="100" viewBox="0 0 100 100" fill="none" xmlns="http://www.w3.org/2000/svg">
<path fill-rule="evenodd" clip-rule="evenodd" d="M19.3262 64.3141C16.0707 58.5187 11.9733 53.14 7.96402 47.9569C7.09711 46.8439 5.49141 46.6114 4.45338 47.508C3.34393 48.3346 3.16615 49.9275 3.96236 50.9697C7.85215 55.9895 11.8434 61.1898 14.9341 66.7258C15.5882 67.9102 17.1244 68.3547 18.3463 67.6985C19.5675 67.043 19.9796 65.4992 19.3262 64.3141Z" fill="black"/>
<path fill-rule="evenodd" clip-rule="evenodd" d="M51.0491 60.026C51.1983 45.3104 49.4715 30.6323 49.9616 15.8587C50.0379 14.5096 48.9448 13.34 47.5723 13.2983C46.1991 13.2573 45.0086 14.3069 45.0029 15.7268C44.491 30.5223 46.1965 45.2216 46.0254 59.9591C46.0367 61.362 47.1579 62.503 48.5495 62.5256C49.8697 62.4783 51.0604 61.4289 51.0491 60.026Z" fill="black"/>
<path fill-rule="evenodd" clip-rule="evenodd" d="M93.2852 45.0865C89.2434 49.5526 85.2012 54.0183 81.1587 58.485C80.1843 59.4594 80.2808 61.0607 81.3182 62.0033C82.3562 62.9452 83.8923 62.8224 84.8674 61.8473C88.9163 57.3742 92.9649 52.9021 97.0131 48.4297C97.9168 47.3846 97.8155 45.7885 96.7726 44.8516C95.8003 43.9854 94.1882 44.0421 93.2852 45.0865Z" fill="black"/>
</svg>
