<svg width="425" height="311" viewBox="0 0 425 311" fill="none" xmlns="http://www.w3.org/2000/svg">
<path d="M361.033 283.951V223.261H342.301V215.581H388.193V223.261H369.462V283.951H361.033Z" fill="black"/>
<path d="M312.648 284.888C306.404 284.888 301.472 283.14 297.85 279.643C294.229 276.146 292.418 271.339 292.418 265.22V234.312C292.418 228.193 294.229 223.385 297.85 219.889C301.472 216.392 306.404 214.644 312.648 214.644C318.767 214.644 323.637 216.424 327.259 219.983C330.88 223.479 332.691 228.256 332.691 234.312H324.262C324.262 230.441 323.232 227.475 321.171 225.415C319.173 223.292 316.332 222.23 312.648 222.23C308.964 222.23 306.061 223.292 303.938 225.415C301.877 227.475 300.847 230.441 300.847 234.312V265.22C300.847 269.091 301.877 272.088 303.938 274.211C306.061 276.271 308.964 277.302 312.648 277.302C316.332 277.302 319.173 276.271 321.171 274.211C323.232 272.088 324.262 269.091 324.262 265.22H332.691C332.691 271.276 330.88 276.084 327.259 279.643C323.637 283.14 318.767 284.888 312.648 284.888Z" fill="black"/>
<path d="M239.818 283.951V215.581H279.155V223.261H248.154V244.427H275.877V251.92H248.154V276.271H279.155V283.951H239.818Z" fill="black"/>
<path d="M185.533 283.951V215.581H196.772L217.658 274.117C217.533 272.556 217.377 270.652 217.19 268.404C217.065 266.094 216.94 263.69 216.815 261.192C216.753 258.632 216.721 256.228 216.721 253.981V215.581H224.87V283.951H213.631L192.839 225.415C192.963 226.913 193.088 228.818 193.213 231.128C193.338 233.376 193.432 235.78 193.494 238.34C193.619 240.837 193.682 243.241 193.682 245.551V283.951H185.533Z" fill="black"/>
<path d="M132.184 283.951V215.581H143.423L164.308 274.117C164.184 272.556 164.027 270.652 163.84 268.404C163.715 266.094 163.59 263.69 163.466 261.192C163.403 258.632 163.372 256.228 163.372 253.981V215.581H171.52V283.951H160.281L139.489 225.415C139.614 226.913 139.739 228.818 139.864 231.128C139.988 233.376 140.082 235.78 140.145 238.34C140.269 240.837 140.332 243.241 140.332 245.551V283.951H132.184Z" fill="black"/>
<path d="M98.504 284.888C92.385 284.888 87.546 283.108 83.987 279.549C80.4279 275.99 78.6484 270.902 78.6484 264.283V235.249C78.6484 228.63 80.4279 223.542 83.987 219.983C87.546 216.424 92.385 214.644 98.504 214.644C104.623 214.644 109.462 216.424 113.021 219.983C116.58 223.542 118.36 228.599 118.36 235.155V264.283C118.36 270.902 116.58 275.99 113.021 279.549C109.462 283.108 104.623 284.888 98.504 284.888ZM98.504 277.302C102.188 277.302 104.998 276.271 106.933 274.211C108.931 272.088 109.93 269.091 109.93 265.22V234.312C109.93 230.441 108.931 227.475 106.933 225.415C104.998 223.292 102.188 222.23 98.504 222.23C94.8826 222.23 92.0728 223.292 90.0748 225.415C88.0767 227.475 87.0777 230.441 87.0777 234.312V265.22C87.0777 269.091 88.0767 272.088 90.0748 274.211C92.0728 276.271 94.8826 277.302 98.504 277.302Z" fill="black"/>
<path d="M45.9041 284.888C39.6602 284.888 34.7275 283.14 31.106 279.643C27.4846 276.146 25.6738 271.339 25.6738 265.22V234.312C25.6738 228.193 27.4846 223.385 31.106 219.889C34.7275 216.392 39.6602 214.644 45.9041 214.644C52.0231 214.644 56.8933 216.424 60.5148 219.983C64.1363 223.479 65.947 228.256 65.947 234.312H57.5177C57.5177 230.441 56.4875 227.475 54.427 225.415C52.4289 223.292 49.588 222.23 45.9041 222.23C42.2202 222.23 39.3168 223.292 37.1938 225.415C35.1333 227.475 34.1031 230.441 34.1031 234.312V265.22C34.1031 269.091 35.1333 272.088 37.1938 274.211C39.3168 276.271 42.2202 277.302 45.9041 277.302C49.588 277.302 52.4289 276.271 54.427 274.211C56.4875 272.088 57.5177 269.091 57.5177 265.22H65.947C65.947 271.276 64.1363 276.084 60.5148 279.643C56.8933 283.14 52.0231 284.888 45.9041 284.888Z" fill="black"/>
<path d="M323.026 196.997H317.767C311.578 196.997 308.483 196.433 308.483 195.305C308.483 194.482 309.032 193.415 310.13 192.104L312.965 188.628C314.245 186.586 315.175 184.147 315.755 181.311C316.334 178.446 317.111 173.278 318.087 165.808C319.093 158.308 319.596 154.162 319.596 153.369L319.459 152.18L317.904 153.598L316.623 155.564C315.404 157.455 314.047 159.665 312.553 162.196L308.437 169.101C300.694 181.997 296.517 188.857 295.907 189.68C294.322 191.784 292.508 192.836 290.465 192.836C289.581 192.836 288.666 191.86 287.721 189.909L286.944 187.531L286.258 185.016C285.892 183.613 285.434 181.936 284.886 179.985L283.514 174.863C279.794 160.93 277.264 153.964 275.922 153.964L275.328 155.656C275.114 156.449 274.261 160.503 272.767 167.821C271.273 175.107 270.526 180.275 270.526 183.324C270.526 186.342 270.709 188.385 271.075 189.452C271.989 192.135 272.447 193.72 272.447 194.208L272.172 195.442C271.349 196.479 269.139 196.997 265.541 196.997C261.944 196.997 259.352 196.845 257.767 196.54C256.181 196.205 255.389 195.427 255.389 194.208C255.389 193.567 256.41 192.196 258.453 190.092C260.495 187.988 261.806 185.991 262.386 184.101C262.965 182.18 264.276 175.915 266.319 165.305C268.361 154.665 269.383 148.766 269.383 147.607C269.383 146.418 269.139 145.061 268.651 143.537L268.011 141.662L266.547 138.186C266.547 137.211 266.852 136.54 267.462 136.174C268.864 135.351 270.053 134.939 271.029 134.939H273.636C276.227 134.939 278.559 135.473 280.633 136.54C282.706 137.577 284.337 138.979 285.526 140.747C285.892 141.296 287.569 146.997 290.556 157.851L294.718 173.628L295.587 175.503C296.654 175.503 300.48 169.939 307.065 158.811C313.681 147.653 317.645 141.372 318.956 139.97C322.065 136.677 325.663 135.031 329.748 135.031C333.864 135.031 336.41 135.534 337.386 136.54L337.843 137.638C337.843 138.125 337.065 138.888 335.511 139.924C333.986 140.93 332.965 142.211 332.447 143.766C331.532 146.601 330.282 153.918 328.697 165.717C327.111 177.485 326.319 183.918 326.319 185.016C326.319 186.113 326.623 187.638 327.233 189.589L327.919 191.418L328.834 192.699L329.703 193.705C329.703 195.9 327.477 196.997 323.026 196.997Z" fill="black"/>
<path d="M217.269 170.518H229.937C231.248 170.518 231.903 170.244 231.903 169.695V169.467C231.903 169.162 231.324 166.311 230.165 160.915C229.007 155.518 228.321 152.18 228.107 150.899C227.924 149.619 227.787 148.979 227.696 148.979C227.635 148.979 227.376 149.39 226.918 150.213C226.492 151.037 226.141 151.723 225.867 152.271C225.592 152.82 225.348 153.277 225.135 153.643C219.19 163.826 216.217 169.329 216.217 170.152C216.217 170.396 216.568 170.518 217.269 170.518ZM232.269 177.424C231.659 176.997 228.458 176.784 222.665 176.784C216.903 176.784 213.519 177.165 212.513 177.927C211.507 178.659 210.394 180.244 209.174 182.683C207.985 185.122 207.391 186.997 207.391 188.308C207.391 189.619 207.726 191.006 208.397 192.47C209.068 193.933 209.403 194.726 209.403 194.848C209.403 195.976 208.687 196.692 207.254 196.997C206.248 197.21 203.184 197.317 198.062 197.317L193.9 197.363C191.705 197.363 190.607 196.814 190.607 195.716C190.607 194.253 191.842 192.805 194.312 191.372C196.781 189.939 198.458 188.476 199.342 186.982C200.257 185.488 203.793 179.223 209.952 168.186C216.11 157.119 219.296 151.357 219.51 150.899C219.754 150.412 220.516 148.552 221.796 145.32C223.107 142.058 224.022 140 224.54 139.146C226.492 135.915 228.763 134.299 231.354 134.299C232.421 134.299 233.443 134.939 234.418 136.22C235.424 137.5 236.537 140.396 237.757 144.909L238.854 150.122C239.312 152.348 239.693 154.116 239.998 155.427L242.284 166.174C243.199 170.381 244.144 174.848 245.12 179.573C246.095 184.268 246.674 186.89 246.857 187.439C247.498 189.329 248.412 190.534 249.601 191.052C251.674 191.966 252.711 192.942 252.711 193.979C252.711 195.534 252.36 196.479 251.659 196.814C250.958 197.149 247.909 197.317 242.513 197.317L237.299 197.363C233.031 197.363 230.897 196.723 230.897 195.442C230.897 194.954 231.034 194.482 231.309 194.024L231.903 193.201C232.665 192.256 233.062 191.753 233.092 191.692C233.976 190.137 234.418 188.11 234.418 185.61C234.418 181.159 233.702 178.43 232.269 177.424Z" fill="black"/>
<path d="M184.819 161.463V158.674C184.819 153.186 183.279 148.582 180.2 144.863C177.7 141.845 174.392 140.335 170.276 140.335H169.544C166.496 140.335 163.66 141.159 161.038 142.805C155.672 146.189 151.709 151.707 149.148 159.36C147.807 163.384 147.136 167.165 147.136 170.701V172.896C147.136 178.537 148.523 183.14 151.297 186.707C154.072 190.274 157.776 192.058 162.41 192.058C162.471 192.058 162.517 192.058 162.547 192.058C165.261 192.058 167.929 191.281 170.55 189.726C175.855 186.585 179.925 180.945 182.761 172.805C184.133 168.811 184.819 165.031 184.819 161.463ZM170.55 134.024H172.608C175.566 134.024 178.569 134.619 181.618 135.808C184.697 136.966 187.304 138.674 189.438 140.93C191.602 143.156 193.325 145.823 194.605 148.933C195.916 152.043 196.572 155.381 196.572 158.948V160.96C196.572 165.625 195.535 170.381 193.462 175.229C191.419 180.046 188.721 184.192 185.368 187.668C182.014 191.143 178.218 193.811 173.98 195.671C169.743 197.5 165.55 198.415 161.404 198.415H159.346C152.73 198.415 147.09 196.082 142.425 191.418C140.352 189.345 138.66 186.738 137.349 183.598C136.038 180.427 135.383 177.058 135.383 173.491V171.479C135.383 171.418 135.383 171.341 135.383 171.25C135.383 166.555 136.374 161.906 138.355 157.302C142.319 148.003 148.569 141.296 157.105 137.18C161.435 135.076 165.916 134.024 170.55 134.024Z" fill="black"/>
<path d="M98.9104 161.829V162.424C98.9104 163.399 99.9013 163.887 101.883 163.887H105.45C109.261 163.887 112.538 162.637 115.282 160.137C118.026 157.637 119.398 154.406 119.398 150.442V149.665C119.398 147.073 118.499 144.97 116.7 143.354C114.932 141.738 112.508 140.93 109.429 140.93H106.776C104.398 140.93 102.904 141.738 102.295 143.354C102.234 143.506 101.654 146.509 100.557 152.363C99.4592 158.217 98.9104 161.372 98.9104 161.829ZM110.572 134.848C119.81 134.848 125.907 137.363 128.865 142.393C130.023 144.406 130.603 146.738 130.603 149.39C130.572 156.159 127.203 161.768 120.496 166.22C117.63 168.11 116.197 169.588 116.197 170.656C116.197 171.723 116.67 173.278 117.615 175.32C120.572 181.906 122.264 185.534 122.691 186.204C123.697 187.759 125.42 189.131 127.859 190.32C130.328 191.479 131.563 192.729 131.563 194.07C131.563 195.412 130.74 196.281 129.093 196.677C127.904 196.951 124.947 197.088 120.221 197.088C118.057 197.088 116.304 196.174 114.962 194.345C113.621 192.485 112.432 190.305 111.395 187.805C110.359 185.274 109.231 182.409 108.011 179.207C106.792 175.976 106.045 174.085 105.77 173.537C104.673 171.372 102.889 170.29 100.42 170.29C98.8647 170.29 97.8739 170.732 97.447 171.616C95.8007 174.909 94.9775 179.253 94.9775 184.649C94.9775 186.448 95.2824 187.973 95.8921 189.223C96.5019 190.442 97.1879 191.585 97.9501 192.653C98.7123 193.689 99.0934 194.588 99.0934 195.351C99.0934 196.601 95.0232 197.226 86.883 197.226L80.8464 197.317L79.2458 197.363H77.8281C76.5781 197.363 75.9531 197.028 75.9531 196.357C75.9531 194.802 77.1269 193.171 79.4745 191.463C81.8525 189.726 83.2092 188.14 83.5446 186.707C83.88 185.244 85.0995 178.262 87.2031 165.762C89.3373 153.262 90.4043 146.311 90.4043 144.909C90.4043 143.506 89.9928 142.348 89.1696 141.433C89.0171 141.281 88.4074 140.793 87.3403 139.97C86.3037 139.146 85.7854 138.415 85.7854 137.774C85.7854 136.555 86.6086 135.762 88.255 135.396C89.0781 135.214 91.5324 135.122 95.6178 135.122L107.508 134.848H110.572Z" fill="black"/>
<path d="M231.098 109.951H217.049V47.2002H249.829C264.346 47.2002 273.712 55.4421 273.712 69.8656C273.712 84.289 264.346 92.6246 249.829 92.6246H231.098V109.951ZM248.331 59.8441H231.098V79.9807H248.331C256.104 79.9807 259.757 77.7329 259.757 69.8656C259.757 62.1856 256.104 59.8441 248.331 59.8441Z" fill="black"/>
<path d="M212.506 109.951H198.457V47.2002H212.506V109.951Z" fill="black"/>
<path d="M167.635 110.888C148.622 110.888 137.945 103.395 137.945 88.7846V88.2227H151.994V89.9085C151.994 95.7154 154.897 98.0568 167.635 98.0568C178.874 98.0568 181.496 96.371 181.496 92.1563C181.496 88.3163 179.342 86.9115 172.879 85.7876L155.272 83.2588C144.033 81.4793 137.383 75.8598 137.383 65.651C137.383 56.1915 145.063 46.2637 166.136 46.2637C185.43 46.2637 194.421 55.1612 194.421 68.3671V68.929H180.278V67.6178C180.278 61.6237 177.188 59.0949 164.731 59.0949C154.616 59.0949 151.525 61.0617 151.525 65.089C151.525 68.7417 153.586 70.0529 158.831 70.9895L176.438 73.7993C190.487 76.0471 195.545 82.8842 195.545 91.5007C195.545 101.71 187.584 110.888 167.635 110.888Z" fill="black"/>
<path d="M9.6582 306.044C11.3371 302.59 23.3954 298.332 32.3136 297.547C39.9426 296.876 42.947 302.119 46.1618 303.79C50.9855 306.296 66.8423 299.588 70.1499 298.631C74.386 297.405 84.9221 293.279 90.7774 293.342C93.0335 293.366 96.7468 298.63 97.7305 299.324C101.575 302.038 107.622 307.368 117.025 305.112C125.362 303.111 133.192 300.795 141.767 298.934C146.237 297.964 147.634 297.67 149.994 299.52C151.997 301.089 156.594 306.662 163.843 305.35C171.656 303.936 178.388 301.557 185.339 299.65C188.018 298.915 196.855 295.908 200.926 296.377C205.789 296.936 205.038 302.417 210.138 303.053C215.955 303.778 226.687 294.463 233.084 297.504C234.764 298.302 242.965 304.845 244.556 304.613C258.689 302.557 268.726 297.41 283.146 295.423C285.726 295.067 293.903 305.599 297.284 306.954C299.14 307.698 303.129 306.338 304.7 306.044C313.549 304.389 321.99 302.699 330.427 300.755C334.482 299.821 337.998 298.248 339.929 300.235C341.98 302.345 344.955 304.476 348.621 306.261C352.645 308.22 356.422 307.202 361.831 306.391C381.462 303.446 401.064 300.503 420.585 297.46" stroke="black" stroke-width="7" stroke-linecap="round"/>
<path d="M120.612 142.793C144.344 134.53 180.847 131.562 210.552 129.338C262.815 125.425 316.883 128.275 363.869 138.555C390.614 144.407 402.693 155.669 389.916 167.171C371.157 184.061 319.832 192.899 279.054 198.245C252.011 201.791 224.264 203.421 195.938 204.138C158.434 205.089 120.504 204.756 83.5007 201.921C58.0312 199.969 9.7167 197.134 4.50375 183.903C2.28116 178.262 7.85213 172.293 13.4716 167.259C26.2184 155.839 45.312 145.621 69.6377 137.79C98.0127 128.656 131.537 121.738 166.796 118.182C195.366 115.301 223.416 115.419 252.563 115.423" stroke="black" stroke-width="7" stroke-linecap="round"/>
<path d="M209.33 12.6171C210.384 13.2175 211.442 13.8126 212.498 14.4093C212.377 14.4385 212.256 14.4696 212.133 14.5022C211.133 14.7679 210.144 15.0707 209.16 15.3861C209.134 15.8605 209.112 16.3349 209.093 16.8093C208.967 19.8955 208.713 23.1703 209.285 26.2075C209.333 26.4641 209.39 26.7285 209.461 26.9894C209.463 26.994 209.465 26.9987 209.467 27.0033C209.571 27.2527 209.834 28.0191 209.728 27.7707C209.62 27.5221 209.533 27.2576 209.461 26.9894C208.288 24.196 206.956 21.4512 205.632 18.7226L205.578 18.6101C205.288 18.0119 204.992 17.4155 204.695 16.8193C204.469 16.8873 204.243 16.954 204.016 17.0192C201.91 17.6253 199.732 18.2353 197.574 18.6361C197.535 18.6435 197.013 18.7929 197.084 18.5709C197.2 18.2103 197.639 17.7628 197.864 17.481C199.297 15.6838 200.904 14.0262 202.531 12.3826C202.07 11.3828 201.635 10.3731 201.243 9.34638C201.201 9.23561 200.49 7.90586 201.055 8.02799C201.59 8.14354 202.1 8.41324 202.565 8.66085C203.354 9.08116 204.116 9.5435 204.877 10.0062C206.559 8.29018 208.258 6.52145 209.522 4.52178C209.739 4.17802 209.747 4.13332 209.909 3.8209C209.923 3.79496 209.929 3.72571 209.952 3.744C210.095 3.86102 209.928 4.10707 209.916 4.28859C209.899 4.54393 209.885 4.79933 209.869 5.05469C209.714 7.5759 209.503 10.0962 209.33 12.6171Z" fill="black"/>
<path d="M216.358 16.6171C212.845 14.5661 209.255 12.6296 205.766 10.5441C204.705 9.90973 203.661 9.24473 202.565 8.66085C202.1 8.41324 201.59 8.14354 201.055 8.02799C200.49 7.90586 201.201 9.23561 201.243 9.34638C202.457 12.5274 204.091 15.5451 205.578 18.6101C206.922 21.3803 208.277 24.1667 209.467 27.0033C209.571 27.2527 209.834 28.0191 209.728 27.7707C209.516 27.2803 209.383 26.728 209.285 26.2075C208.713 23.1703 208.967 19.8955 209.093 16.8093C209.253 12.8895 209.628 8.97321 209.869 5.05469C209.885 4.79933 209.899 4.54393 209.916 4.28859C209.928 4.10707 210.095 3.86102 209.952 3.744C209.929 3.72571 209.923 3.79496 209.909 3.8209C209.747 4.13332 209.739 4.17802 209.522 4.52178C208.126 6.73161 206.197 8.6594 204.347 10.5457C202.126 12.8108 199.831 15.0145 197.864 17.481C197.639 17.7628 197.2 18.2103 197.084 18.5709C197.013 18.7929 197.535 18.6435 197.574 18.6361C199.732 18.2353 201.91 17.6253 204.016 17.0192C206.738 16.236 209.394 15.23 212.133 14.5022C213.006 14.2702 213.82 14.1167 214.71 14.1756" stroke="black" stroke-width="7" stroke-linecap="round"/>
</svg>
