<svg width="111" height="110" viewBox="0 0 111 110" fill="none" xmlns="http://www.w3.org/2000/svg">
<g clip-path="url(#clip0_313_409)">
<path d="M110.319 45.8333C109.806 41.142 108.745 36.5271 107.156 32.0833C104.09 23.8582 98.7097 16.6954 91.6648 11.4583C84.7486 6.24813 76.5698 2.97346 67.969 1.97078C67.5522 1.93035 67.1356 2.04992 66.8036 2.30524C66.4717 2.56057 66.2493 2.93254 66.1815 3.34578C66.1421 3.75733 66.2631 4.16821 66.5192 4.49271C66.7754 4.8172 67.147 5.03026 67.5565 5.08744C75.5923 6.21663 83.1842 9.45902 89.5565 14.4833C95.8723 19.4282 100.643 26.0754 103.306 33.6416C104.789 37.7777 105.804 42.067 106.331 46.4291C106.722 50.8051 106.722 55.2073 106.331 59.5833C105.906 63.8944 104.92 68.1316 103.398 72.1874C101.848 76.2615 99.8492 80.1506 97.4398 83.7833C92.3272 91.0949 85.1208 96.6874 76.769 99.825C68.4234 103.158 59.4139 104.492 50.4606 103.721C45.508 103.296 40.6358 102.201 35.9773 100.467C31.3594 98.7614 27.0659 96.2814 23.2815 93.1333C13.7681 84.6944 7.61689 73.1079 5.95646 60.4999C3.82956 47.8714 6.76038 34.9132 14.1148 24.4291C17.9939 19.0422 22.8434 14.4258 28.4148 10.8166C34.0619 7.31306 40.45 5.17846 47.069 4.58328C50.3231 4.26244 53.5773 3.98744 56.7856 3.98744C58.9318 3.96492 61.0767 4.10281 63.2023 4.39994C63.3886 4.44837 63.583 4.45714 63.7729 4.42568C63.9628 4.39423 64.1439 4.32326 64.3047 4.21737C64.4654 4.11147 64.6021 3.973 64.706 3.81093C64.8098 3.64886 64.8784 3.46679 64.9075 3.27651C64.9365 3.08623 64.9253 2.89197 64.8745 2.70631C64.8237 2.52065 64.7345 2.34773 64.6126 2.19872C64.4908 2.04972 64.339 1.92796 64.1671 1.84132C63.9952 1.75468 63.8071 1.7051 63.6148 1.69578C61.3756 1.26339 59.109 0.987723 56.8315 0.870777C53.4641 0.815754 50.0966 0.968823 46.7481 1.32911C39.6402 1.93466 32.769 4.17798 26.6731 7.88328C20.6165 11.6121 15.3021 16.4292 10.9981 22.0916C2.77801 33.3171 -0.665788 47.3395 1.41896 61.0958C3.04603 74.9408 9.64172 87.725 19.9815 97.075C24.2012 100.654 29.0082 103.476 34.1898 105.417C39.3056 107.32 44.6556 108.523 50.094 108.992C59.8848 109.775 69.7234 108.268 78.8315 104.592C88.0903 100.943 96.0084 94.5449 101.519 86.2583C104.092 82.281 106.199 78.0211 107.798 73.5624C109.397 69.1316 110.399 64.5077 110.777 59.8124C111.059 55.1486 110.906 50.4686 110.319 45.8333Z" fill="black"/>
<path d="M93.8216 45.8331C94.2315 45.7653 94.5991 45.5411 94.847 45.2077C95.0949 44.8743 95.2038 44.4577 95.1507 44.0456C94.6178 40.422 92.7148 37.1409 89.8341 34.879C86.9403 32.6466 83.3574 31.4955 79.7049 31.6248C76.1098 31.8718 72.6813 33.2336 69.8966 35.5206C67.2929 37.8317 65.4011 40.8364 64.4424 44.1831C64.3768 44.3545 64.3462 44.5372 64.3523 44.7206C64.3585 44.9039 64.4012 45.0842 64.4781 45.2508C64.555 45.4174 64.6644 45.5669 64.8 45.6905C64.9355 45.8141 65.0945 45.9094 65.2674 45.9706C65.6085 46.0933 65.9836 46.0809 66.3159 45.9361C66.6482 45.7912 66.9126 45.5249 67.0549 45.1915C68.2596 42.6701 70.1702 40.5525 72.5549 39.0956C73.4435 38.5484 74.3985 38.1172 75.3966 37.8123C76.8661 37.266 78.4132 36.9566 79.9799 36.8956C82.5204 36.5951 85.0879 37.1603 87.2674 38.4998C89.4439 39.8484 91.0688 41.9283 91.8507 44.3665C91.8645 44.6002 91.9292 44.828 92.0404 45.0341C92.1516 45.2401 92.3066 45.4193 92.4944 45.559C92.6822 45.6988 92.8983 45.7957 93.1276 45.8431C93.3569 45.8905 93.5937 45.8871 93.8216 45.8331Z" fill="black"/>
<path d="M21.0345 58.5289C20.688 58.6354 20.3953 58.8703 20.2164 59.1856C20.0375 59.5009 19.9858 59.8726 20.072 60.2247C21.729 68.2835 25.8634 75.6229 31.897 81.2164C38.4969 86.4582 46.7586 89.1578 55.1803 88.8247C63.6385 88.9518 71.8806 86.1505 78.5095 80.8955C84.6515 75.4266 89.2772 68.4644 91.9387 60.683C92.0199 60.4934 92.063 60.2897 92.0655 60.0834C92.0681 59.8772 92.0299 59.6724 91.9533 59.4809C91.8767 59.2894 91.7631 59.1148 91.6191 58.9672C91.475 58.8196 91.3032 58.7018 91.1137 58.6205C90.9241 58.5393 90.7203 58.4962 90.5141 58.4936C90.3078 58.4911 90.1031 58.5293 89.9115 58.6059C89.72 58.6825 89.5455 58.7961 89.3978 58.9401C89.2502 59.0842 89.1324 59.2559 89.0511 59.4455C86.2068 66.4596 81.6344 72.6402 75.7595 77.4122C69.7751 81.7293 62.5057 83.8939 55.1345 83.5539C47.8715 84.1178 40.64 82.1234 34.6928 77.9164C28.9047 73.1899 24.7252 66.7845 22.7303 59.583C22.6928 59.4 22.6184 59.2264 22.5116 59.0731C22.4048 58.9197 22.2679 58.7898 22.1092 58.6911C21.9505 58.5925 21.7733 58.5272 21.5885 58.4993C21.4038 58.4714 21.2152 58.4815 21.0345 58.5289Z" fill="black"/>
<path d="M41.8893 39.7834C42.7537 37.9218 42.8846 35.8028 42.256 33.849C41.6273 31.8952 40.2854 30.2501 38.4977 29.2417C37.2807 28.6972 35.9467 28.4664 34.6176 28.5705C33.2885 28.6746 32.0066 29.1102 30.8893 29.8376C26.306 32.5876 23.5102 39.8751 28.781 43.5876C29.8861 44.2209 31.1075 44.6252 32.3722 44.7764C33.637 44.9275 34.9192 44.8225 36.1425 44.4675C37.3658 44.1125 38.5051 43.5148 39.4924 42.71C40.4797 41.9053 41.2949 40.91 41.8893 39.7834Z" fill="black"/>
</g>
<defs>
<clipPath id="clip0_313_409">
<rect width="110" height="110" fill="white" transform="translate(0.912109)"/>
</clipPath>
</defs>
</svg>
