<svg width="420" height="23" viewBox="0 0 420 23" fill="none" xmlns="http://www.w3.org/2000/svg">
<path d="M4.6582 17.0439C6.33709 13.5897 18.3954 9.33212 27.3136 8.54713C34.9426 7.87562 37.947 13.1194 41.1618 14.7897C45.9855 17.2959 61.8423 10.5881 65.1499 9.6309C69.386 8.40505 79.9221 4.27949 85.7774 4.34207C88.0335 4.36619 91.7468 9.63 92.7305 10.3245C96.5746 13.0385 102.622 18.3684 112.025 16.1119C120.362 14.1111 128.192 11.7948 136.767 9.93436C141.237 8.96444 142.634 8.66976 144.994 10.5196C146.997 12.0894 151.594 17.6624 158.843 16.3503C166.656 14.936 173.388 12.5566 180.339 10.6497C183.018 9.91487 191.855 6.90813 195.926 7.37665C200.789 7.93646 200.038 13.4167 205.138 14.0527C210.955 14.778 221.687 5.46298 228.084 8.50378C229.764 9.30243 237.965 15.8449 239.556 15.6134C253.689 13.5573 263.726 8.41033 278.146 6.42292C280.726 6.06735 288.903 16.5994 292.284 17.9543C294.14 18.6984 298.129 17.3378 299.7 17.0439C308.549 15.3888 316.99 13.6992 325.427 11.7551C329.482 10.8206 332.998 9.24824 334.929 11.2349C336.98 13.3446 339.955 15.4756 343.621 17.2607C347.645 19.2204 351.422 18.2022 356.831 17.3907C376.462 14.4461 396.064 11.5032 415.585 8.46042" stroke="black" stroke-width="8.19512" stroke-linecap="round"/>
</svg>
