<svg width="28" height="33" viewBox="0 0 28 33" fill="none" xmlns="http://www.w3.org/2000/svg">
<path d="M23.3577 17.6171C19.8455 15.5661 16.2547 13.6296 12.7661 11.5441C11.7048 10.9097 10.6613 10.2447 9.56505 9.66085C9.10015 9.41324 8.58969 9.14354 8.05515 9.02799C7.49019 8.90586 8.20058 10.2356 8.24285 10.3464C9.45683 13.5274 11.0907 16.5451 12.5779 19.6101C13.922 22.3803 15.2766 25.1667 16.4667 28.0033C16.5713 28.2527 16.8345 29.0191 16.7275 28.7707C16.5164 28.2803 16.383 27.728 16.285 27.2075C15.7131 24.1703 15.9667 20.8955 16.0926 17.8093C16.2525 13.8895 16.6284 9.97321 16.8693 6.05469C16.885 5.79933 16.8993 5.54393 16.9163 5.28859C16.9285 5.10707 17.0954 4.86102 16.9518 4.744C16.9293 4.72571 16.9227 4.79496 16.9093 4.8209C16.7473 5.13332 16.7387 5.17802 16.5215 5.52178C15.1256 7.73161 13.1975 9.6594 11.3473 11.5457C9.12571 13.8108 6.8307 16.0145 4.86414 18.481C4.63941 18.7628 4.19959 19.2103 4.08394 19.5709C4.01277 19.7929 4.5346 19.6435 4.57444 19.6361C6.73229 19.2353 8.90979 18.6253 11.0162 18.0192C13.7383 17.236 16.3945 16.23 19.1327 15.5022C20.0059 15.2702 20.8199 15.1167 21.7101 15.1756" stroke="black" stroke-width="7.6917" stroke-linecap="round"/>
</svg>
